<?xml version="1.0" encoding="UTF-8" standalone="no"?>
<!-- Uploaded to: SVG Repo, www.svgrepo.com, Generator: SVG Repo Mixer Tools -->

<svg
   width="800px"
   height="800px"
   viewBox="0 0 512 512"
   version="1.1"
   id="svg166"
   sodipodi:docname="telescope_gal.svg"
   xml:space="preserve"
   inkscape:version="1.2.2 (732a01da63, 2022-12-09)"
   xmlns:inkscape="http://www.inkscape.org/namespaces/inkscape"
   xmlns:sodipodi="http://sodipodi.sourceforge.net/DTD/sodipodi-0.dtd"
   xmlns:xlink="http://www.w3.org/1999/xlink"
   xmlns="http://www.w3.org/2000/svg"
   xmlns:svg="http://www.w3.org/2000/svg"><defs
     id="defs170"><linearGradient
       inkscape:collect="always"
       id="linearGradient2935"><stop
         style="stop-color:#fefef5;stop-opacity:1;"
         offset="0"
         id="stop2931" /><stop
         style="stop-color:#ffff40;stop-opacity:1;"
         offset="1"
         id="stop2933" /></linearGradient><linearGradient
       id="linearGradient2913"
       inkscape:swatch="solid"><stop
         style="stop-color:#7549ee;stop-opacity:1;"
         offset="0"
         id="stop2911" /></linearGradient><radialGradient
       inkscape:collect="always"
       xlink:href="#linearGradient2935"
       id="radialGradient2937"
       cx="119.37895"
       cy="119.3795"
       fx="119.37895"
       fy="119.3795"
       r="119.37914"
       gradientTransform="matrix(1,0,0,0.95413239,0,5.4756524)"
       gradientUnits="userSpaceOnUse" /></defs><sodipodi:namedview
     id="namedview168"
     pagecolor="#737373"
     bordercolor="#000000"
     borderopacity="0.25"
     inkscape:showpageshadow="2"
     inkscape:pageopacity="0"
     inkscape:pagecheckerboard="0"
     inkscape:deskcolor="#ffffff"
     showgrid="false"
     inkscape:zoom="1.08375"
     inkscape:cx="265.74394"
     inkscape:cy="402.30681"
     inkscape:window-width="1920"
     inkscape:window-height="1009"
     inkscape:window-x="-8"
     inkscape:window-y="-8"
     inkscape:window-maximized="1"
     inkscape:current-layer="svg166" /><path
     fill="#000000"
     d="m 75.97796,309.17454 c -1.687831,0.0334 -3.358612,0.13377 -5.009722,0.30327 12.649876,30.43964 13.288226,49.11888 13.753126,63.84183 4.48023,-0.0721 8.95947,-0.25901 13.4374,-0.56589 -0.28425,-28.50263 -12.23808,-54.17844 -22.180804,-63.57888 z m 13.293144,1.20096 c 9.05946,4.3399 17.195006,11.66203 23.749286,19.98479 l 5.96937,-4.25564 c -8.04998,-7.81819 -18.2881,-13.39642 -29.718986,-15.72915 z m -24.315188,0.0295 c -26.5312,5.47988 -46.618283,28.44034 -47.718914,56.33872 20.568384,4.05237 41.090868,6.47854 61.583512,6.59985 -0.45736,-14.92753 -1.0121,-32.54024 -13.86427,-62.93857 z m 80.020474,4.76809 c -0.62425,-0.0147 -1.22391,0.081 -1.79078,0.27967 -1.81504,0.63605 -3.27862,2.32355 -4.08614,5.08513 -0.80785,2.76223 -0.79801,6.44706 0.39999,10.15944 1.19833,3.71237 3.32681,6.65395 5.57168,8.34571 2.24519,1.69176 4.38941,2.11569 6.20445,1.47931 1.81504,-0.63605 3.27795,-2.32355 4.08515,-5.08579 0.80785,-2.7619 0.799,-6.44673 -0.39934,-10.15911 -0.57179,-1.77242 -1.35734,-3.36648 -2.26552,-4.7353 a 5.0221808,3.1868127 76.94 0 0 -2.01503,-2.48355 c -0.42229,-0.42032 -0.85474,-0.79834 -1.29178,-1.12784 -1.54324,-1.16293 -3.03862,-1.72619 -4.41301,-1.758 z m 1.90323,2.90387 a 9.4928987,6.0877303 76.585 0 1 1.13112,0.1 5.0221808,3.1868127 76.94 0 0 -0.96194,5.58676 5.0221808,3.1868127 76.94 0 0 4.39859,3.65237 5.0221808,3.1868127 76.94 0 0 1.88323,-4.1881 9.4928987,6.0877303 76.585 0 1 0.7672,2.00192 9.4928987,6.0877303 76.585 0 1 -3.02452,11.26532 9.4928987,6.0877303 76.585 0 1 -8.40637,-6.90148 9.4928987,6.0877303 76.585 0 1 3.02387,-11.26434 9.4928987,6.0877303 76.585 0 1 1.18915,-0.25245 z m -14.17115,5.49561 -4.48187,3.19468 c -0.0957,6.46871 1.10817,10.43911 2.82092,13.45806 1.68947,2.97698 4.03598,5.1507 6.60543,7.71687 l 5.27856,-3.15075 c -0.48425,-0.28983 -0.95637,-0.60523 -1.41144,-0.94817 -3.35304,-2.52716 -6.05396,-6.43199 -7.59065,-11.19319 -0.99112,-3.07108 -1.38587,-6.16248 -1.22062,-9.07783 z m -10.25059,7.30803 -21.18968,15.10556 c 1.68062,6.38346 3.06616,14.22919 3.30386,21.70213 l 27.83773,-16.61602 c -2.21504,-2.17372 -4.59006,-4.57465 -6.49559,-7.93424 -1.79341,-3.16058 -3.05961,-7.10148 -3.45665,-12.25743 z m 13.26429,25.08665 -7.30147,4.35793 c 0.73113,2.93665 1.14587,5.69823 1.20751,8.1844 2.50158,-0.51048 5.00316,-1.05965 7.50475,-1.65766 -0.14098,-3.72648 -0.62294,-7.36377 -1.41112,-10.885 z M 17.184544,372.69572 v 9.87748 c 40.024335,9.64765 79.97293,9.64765 119.997266,0 v -9.7047 c -40.088916,9.34208 -80.126042,7.57261 -119.997266,-0.17278 z m 0,15.94914 v 51.48735 c 5.795934,1.12588 11.587933,2.12323 17.376654,2.98551 v -18.2245 c 1.407181,-2.1311 4.007777,-3.18026 6.793288,-3.23436 4.072038,-0.08 8.53915,1.96389 10.255504,5.85725 v 17.72255 c 28.583944,2.82223 57.09312,1.82815 85.57182,-4.98579 v -51.60866 c -39.975476,9.41749 -80.021782,9.41749 -119.997266,0 z m 108.189006,28.76328 c 2.25897,0.005 4.26745,1.04424 4.26745,3.33927 v 10.49156 l -10.49157,1.31145 v -10.49156 c 0,-2.95076 3.3196,-4.65662 6.22412,-4.65072 z m -26.716106,3.86319 c 2.449116,6.6e-4 4.754646,1.16293 4.754646,3.62189 v 10.49156 l -10.491566,0.65572 v -10.49156 c 0,-2.78682 2.96059,-4.27859 5.73692,-4.27761 z m -26.720048,1.65472 c 2.622891,0 5.245778,1.31144 5.245778,3.93434 v 10.49156 h -10.49156 v -10.49156 c 0,-2.6229 2.622891,-3.93434 5.245782,-3.93434 z"
     id="path164"
     style="stroke-width:0.327861;fill:#ffffff;fill-opacity:1" /><path
     style="fill:#766b00;fill-opacity:0;stroke:#fbff6c;stroke-width:8.5889;stroke-linejoin:round;stroke-miterlimit:1.8;stroke-dasharray:25.76669884, 8.58889961;stroke-dashoffset:8.58889961;stroke-opacity:1;paint-order:fill markers stroke"
     d="M 156.11477,319.19993 451.67303,127.09031"
     id="path297" /><path
     d="m 422.19258,188.56888 c -1.99715,15.90613 -13.05731,27.45765 -32.87291,34.33318 -17.3209,6.00972 -36.42067,6.65865 -43.8286,6.65865 -8.35304,0 -23.01545,-2.39989 -35.46761,-7.66963 -17.48295,-7.39827 -21.15243,-16.16888 -21.15243,-22.22342 0,-4.8608 2.28954,-9.02371 6.99966,-12.72732 6.89864,-5.42423 17.46365,-8.59373 27.24352,-10.03676 -2.96192,4.31117 -4.7008,9.5254 -4.7008,15.13962 0,14.54413 11.64633,26.41114 26.1015,26.78595 3.04779,0.66687 6.85002,1.01961 11.10568,1.01961 14.59378,0 34.38697,-4.09704 46.33054,-13.48797 7.45688,-5.86352 11.39911,-13.39557 11.39911,-21.78275 0,-9.53713 -4.88942,-22.97511 -28.18279,-32.83223 -14.00657,-5.9273 -30.16097,-8.58062 -39.95705,-8.58062 -9.92677,0 -29.31067,0.94754 -47.60462,7.29517 -10.71845,3.71913 -19.497,8.79785 -26.0922,15.09514 -8.16754,7.80066 -13.02386,17.45192 -14.43448,28.68793 l 11.4298,1.43511 c 1.99714,-15.90614 13.0573,-27.45765 32.87291,-34.33319 17.32089,-6.00971 36.42067,-6.65864 43.82859,-6.65864 8.35305,0 23.01545,2.39988 35.46761,7.66963 17.48296,7.39827 21.15244,16.16888 21.15244,22.22342 0,4.8608 -2.28989,9.02371 -6.99967,12.72732 -6.99897,5.50284 -17.76984,8.68372 -27.6666,10.09745 3.05571,-4.35324 4.85666,-9.6485 4.85666,-15.35927 0,-14.72964 -11.94357,-26.71872 -26.65424,-26.80009 -13.80762,-2.64919 -41.49836,0.75479 -56.61626,12.64146 -7.45688,5.86351 -11.39911,13.39557 -11.39911,21.78275 0,9.53713 4.88942,22.97511 28.18314,32.83222 14.00657,5.92731 30.16097,8.58063 39.95705,8.58063 9.92677,0 29.31067,-0.94754 47.60462,-7.29517 10.71845,-3.71913 19.49699,-8.79786 26.0922,-15.09514 8.16754,-7.79859 13.02351,-17.4502 14.43448,-28.68587 z"
     id="path18"
     inkscape:label="path18" /><g
     id="vel3D"><path
       style="color:#000000;fill:#ca0000;stroke-width:5.76;stroke-linejoin:bevel;stroke-miterlimit:1.8;stroke-dashoffset:13.4202;-inkscape-stroke:none;paint-order:fill markers stroke"
       d="M 347.66874,193.82235 456.28338,174.40978"
       id="path9993" /><g
       id="g9987"><path
         style="fill:#d10000;fill-rule:evenodd;stroke-width:2.88;fill-opacity:1"
         d="m 456.28338,174.40978 -11.64182,16.70892 47.08025,-23.04279 -52.14735,-5.30795 z"
         id="path9989" /></g><path
       style="color:#000000;fill:#d10000;stroke-linejoin:bevel;stroke-miterlimit:1.8;stroke-dashoffset:13.4202;-inkscape-stroke:none;paint-order:fill markers stroke"
       d="m 455.77734,171.57422 -108.61523,19.41211 1.01367,5.67187 108.61524,-19.41406 z"
       id="path9995" /></g><g
     id="vellos"><path
       style="color:#000000;fill:#946600;stroke-width:5.76;stroke-linejoin:bevel;stroke-miterlimit:1.8;stroke-dashoffset:13.4202;-inkscape-stroke:none;paint-order:fill markers stroke"
       d="m 346.9623,192.34567 87.5978,-53.73274"
       id="path10362" /><g
       id="g10356"><path
         style="fill:#d96e01;fill-rule:evenodd;stroke-width:2.88;fill-opacity:1"
         d="m 434.5601,138.61293 -4.74537,19.80408 35.43218,-38.62746 -50.49089,14.07801 z"
         id="path10358" /></g><path
       style="color:#000000;fill:#d96e01;stroke-linejoin:bevel;stroke-miterlimit:1.8;stroke-dashoffset:13.4202;-inkscape-stroke:none;paint-order:fill markers stroke"
       d="m 433.05469,136.1582 -87.59766,53.73242 3.01172,4.91016 87.59766,-53.73242 z"
       id="path10364" /></g><g
     style="fill:url(#radialGradient2937);fill-opacity:1"
     id="sn"
     transform="matrix(0.26968567,-0.1374022,0.1374022,0.26968567,335.97332,211.31478)"><path
       d="m 238.389,91.942 c -1.28,-3.939 -5.513,-6.096 -9.451,-4.815 l -89.925,29.219 21.004,-28.91 c 2.435,-3.351 1.691,-8.041 -1.66,-10.476 -3.352,-2.435 -8.041,-1.691 -10.476,1.66 l -21.002,28.908 V 12.976 c 0,-4.142 -3.358,-7.5 -7.5,-7.5 -4.142,0 -7.5,3.358 -7.5,7.5 v 94.553 L 90.874,78.619 C 88.439,75.268 83.75,74.525 80.398,76.96 c -3.351,2.434 -4.094,7.124 -1.66,10.475 L 99.742,116.345 9.82,87.127 c -3.944,-1.281 -8.171,0.876 -9.451,4.815 -1.28,3.939 0.875,8.171 4.815,9.451 l 89.924,29.219 -33.987,11.043 c -3.939,1.28 -6.095,5.511 -4.815,9.451 1.03,3.169 3.97,5.184 7.131,5.184 0.768,0 1.549,-0.119 2.319,-0.369 l 33.986,-11.043 -55.577,76.496 c -2.435,3.351 -1.691,8.041 1.66,10.476 1.331,0.967 2.874,1.433 4.402,1.433 2.319,0 4.606,-1.072 6.074,-3.092 l 55.577,-76.496 v 35.736 c 0,4.142 3.358,7.5 7.5,7.5 4.142,0 7.5,-3.358 7.5,-7.5 v -35.735 l 55.577,76.495 c 1.467,2.02 3.754,3.092 6.074,3.092 1.528,0 3.071,-0.466 4.402,-1.433 3.351,-2.435 4.094,-7.125 1.66,-10.476 l -55.578,-76.496 33.985,11.042 c 0.771,0.251 1.551,0.369 2.319,0.369 3.162,0 6.101,-2.015 7.131,-5.184 1.28,-3.939 -0.876,-8.171 -4.815,-9.451 l -33.986,-11.043 89.925,-29.219 c 3.941,-1.279 6.097,-5.511 4.817,-9.45 z"
       id="path268"
       style="fill:url(#radialGradient2937);fill-opacity:1" /></g></svg>
