<?xml version="1.0" encoding="utf-8" standalone="no"?>
<!DOCTYPE svg PUBLIC "-//W3C//DTD SVG 1.1//EN"
  "http://www.w3.org/Graphics/SVG/1.1/DTD/svg11.dtd">
<svg xmlns:xlink="http://www.w3.org/1999/xlink" width="612.274723pt" height="211.786907pt" viewBox="0 0 612.274723 211.786907" xmlns="http://www.w3.org/2000/svg" version="1.1">
 <metadata>
  <rdf:RDF xmlns:dc="http://purl.org/dc/elements/1.1/" xmlns:cc="http://creativecommons.org/ns#" xmlns:rdf="http://www.w3.org/1999/02/22-rdf-syntax-ns#">
   <cc:Work>
    <dc:type rdf:resource="http://purl.org/dc/dcmitype/StillImage"/>
    <dc:date>2023-03-24T09:45:22.268339</dc:date>
    <dc:format>image/svg+xml</dc:format>
    <dc:creator>
     <cc:Agent>
      <dc:title>Matplotlib v3.7.0, https://matplotlib.org/</dc:title>
     </cc:Agent>
    </dc:creator>
   </cc:Work>
  </rdf:RDF>
 </metadata>
 <defs>
  <style type="text/css">*{stroke-linejoin: round; stroke-linecap: butt}</style>
 </defs>
 <g id="figure_1">
  <g id="patch_1">
   <path d="M 0 211.786907 
L 612.274723 211.786907 
L 612.274723 0 
L 0 0 
L 0 211.786907 
z
" style="fill: none"/>
  </g>
  <g id="axes_1">
   <g id="patch_2">
    <path d="M 47.074723 176.633325 
L 300.711086 176.633325 
L 300.711086 10.313325 
L 47.074723 10.313325 
L 47.074723 176.633325 
z
" style="fill: none"/>
   </g>
   <g id="matplotlib.axis_1">
    <g id="xtick_1">
     <g id="line2d_1">
      <path d="M 56.468662 176.633325 
L 56.468662 10.313325 
" clip-path="url(#pf276ab6144)" style="fill: none; stroke-dasharray: 0.8,1.32; stroke-dashoffset: 0; stroke: #ffffff; stroke-opacity: 0.3; stroke-width: 0.8"/>
     </g>
     <g id="line2d_2">
      <defs>
       <path id="mde970b39fa" d="M 0 0 
L 0 3.5 
" style="stroke: #ffffff; stroke-width: 1.5"/>
      </defs>
      <g>
       <use xlink:href="#mde970b39fa" x="56.468662" y="176.633325" style="fill: #ffffff; stroke: #ffffff; stroke-width: 1.5"/>
      </g>
     </g>
     <g id="text_1">
      <!-- $\mathdefault{0.02}$ -->
      <g style="fill: #ffffff" transform="translate(48.277212 187.559975) scale(0.09 -0.09)">
       <defs>
        <path id="CMR17-30" d="M 2688 2025 
C 2688 2416 2682 3080 2413 3591 
C 2176 4039 1798 4198 1466 4198 
C 1158 4198 768 4058 525 3597 
C 269 3118 243 2524 243 2025 
C 243 1661 250 1106 448 619 
C 723 -39 1216 -128 1466 -128 
C 1760 -128 2208 -7 2470 600 
C 2662 1042 2688 1559 2688 2025 
z
M 1466 -26 
C 1056 -26 813 325 723 812 
C 653 1188 653 1738 653 2096 
C 653 2588 653 2997 736 3387 
C 858 3929 1216 4096 1466 4096 
C 1728 4096 2067 3923 2189 3400 
C 2272 3036 2278 2607 2278 2096 
C 2278 1680 2278 1169 2202 792 
C 2067 95 1690 -26 1466 -26 
z
" transform="scale(0.015625)"/>
        <path id="CMMI12-3a" d="M 1178 307 
C 1178 492 1024 619 870 619 
C 685 619 557 466 557 313 
C 557 128 710 0 864 0 
C 1050 0 1178 153 1178 307 
z
" transform="scale(0.015625)"/>
        <path id="CMR17-32" d="M 2669 989 
L 2554 989 
C 2490 536 2438 459 2413 420 
C 2381 369 1920 369 1830 369 
L 602 369 
C 832 619 1280 1072 1824 1597 
C 2214 1967 2669 2402 2669 3035 
C 2669 3790 2067 4224 1395 4224 
C 691 4224 262 3604 262 3030 
C 262 2780 448 2748 525 2748 
C 589 2748 781 2787 781 3010 
C 781 3207 614 3264 525 3264 
C 486 3264 448 3258 422 3245 
C 544 3790 915 4058 1306 4058 
C 1862 4058 2227 3617 2227 3035 
C 2227 2479 1901 2000 1536 1584 
L 262 146 
L 262 0 
L 2515 0 
L 2669 989 
z
" transform="scale(0.015625)"/>
       </defs>
       <use xlink:href="#CMR17-30" transform="scale(0.996264)"/>
       <use xlink:href="#CMMI12-3a" transform="translate(45.690477 0) scale(0.996264)"/>
       <use xlink:href="#CMR17-30" transform="translate(72.787654 0) scale(0.996264)"/>
       <use xlink:href="#CMR17-32" transform="translate(118.478131 0) scale(0.996264)"/>
      </g>
     </g>
    </g>
    <g id="xtick_2">
     <g id="line2d_3">
      <path d="M 94.04442 176.633325 
L 94.04442 10.313325 
" clip-path="url(#pf276ab6144)" style="fill: none; stroke-dasharray: 0.8,1.32; stroke-dashoffset: 0; stroke: #ffffff; stroke-opacity: 0.3; stroke-width: 0.8"/>
     </g>
     <g id="line2d_4">
      <g>
       <use xlink:href="#mde970b39fa" x="94.04442" y="176.633325" style="fill: #ffffff; stroke: #ffffff; stroke-width: 1.5"/>
      </g>
     </g>
     <g id="text_2">
      <!-- $\mathdefault{0.04}$ -->
      <g style="fill: #ffffff" transform="translate(85.85297 187.559975) scale(0.09 -0.09)">
       <defs>
        <path id="CMR17-34" d="M 2150 4122 
C 2150 4256 2144 4256 2029 4256 
L 128 1254 
L 128 1088 
L 1779 1088 
L 1779 457 
C 1779 224 1766 160 1318 160 
L 1197 160 
L 1197 0 
C 1402 0 1747 0 1965 0 
C 2182 0 2528 0 2733 0 
L 2733 160 
L 2611 160 
C 2163 160 2150 224 2150 457 
L 2150 1088 
L 2803 1088 
L 2803 1254 
L 2150 1254 
L 2150 4122 
z
M 1798 3703 
L 1798 1254 
L 256 1254 
L 1798 3703 
z
" transform="scale(0.015625)"/>
       </defs>
       <use xlink:href="#CMR17-30" transform="scale(0.996264)"/>
       <use xlink:href="#CMMI12-3a" transform="translate(45.690477 0) scale(0.996264)"/>
       <use xlink:href="#CMR17-30" transform="translate(72.787654 0) scale(0.996264)"/>
       <use xlink:href="#CMR17-34" transform="translate(118.478131 0) scale(0.996264)"/>
      </g>
     </g>
    </g>
    <g id="xtick_3">
     <g id="line2d_5">
      <path d="M 131.620177 176.633325 
L 131.620177 10.313325 
" clip-path="url(#pf276ab6144)" style="fill: none; stroke-dasharray: 0.8,1.32; stroke-dashoffset: 0; stroke: #ffffff; stroke-opacity: 0.3; stroke-width: 0.8"/>
     </g>
     <g id="line2d_6">
      <g>
       <use xlink:href="#mde970b39fa" x="131.620177" y="176.633325" style="fill: #ffffff; stroke: #ffffff; stroke-width: 1.5"/>
      </g>
     </g>
     <g id="text_3">
      <!-- $\mathdefault{0.06}$ -->
      <g style="fill: #ffffff" transform="translate(123.428727 187.559975) scale(0.09 -0.09)">
       <defs>
        <path id="CMR17-36" d="M 678 2176 
C 678 3690 1395 4032 1811 4032 
C 1946 4032 2272 4009 2400 3776 
C 2298 3776 2106 3776 2106 3553 
C 2106 3381 2246 3323 2336 3323 
C 2394 3323 2566 3348 2566 3560 
C 2566 3954 2246 4179 1805 4179 
C 1043 4179 243 3390 243 1984 
C 243 253 966 -128 1478 -128 
C 2099 -128 2688 427 2688 1283 
C 2688 2081 2170 2662 1517 2662 
C 1126 2662 838 2407 678 1960 
L 678 2176 
z
M 1478 25 
C 691 25 691 1200 691 1436 
C 691 1896 909 2560 1504 2560 
C 1613 2560 1926 2560 2138 2120 
C 2253 1870 2253 1609 2253 1289 
C 2253 944 2253 690 2118 434 
C 1978 171 1773 25 1478 25 
z
" transform="scale(0.015625)"/>
       </defs>
       <use xlink:href="#CMR17-30" transform="scale(0.996264)"/>
       <use xlink:href="#CMMI12-3a" transform="translate(45.690477 0) scale(0.996264)"/>
       <use xlink:href="#CMR17-30" transform="translate(72.787654 0) scale(0.996264)"/>
       <use xlink:href="#CMR17-36" transform="translate(118.478131 0) scale(0.996264)"/>
      </g>
     </g>
    </g>
    <g id="xtick_4">
     <g id="line2d_7">
      <path d="M 169.195935 176.633325 
L 169.195935 10.313325 
" clip-path="url(#pf276ab6144)" style="fill: none; stroke-dasharray: 0.8,1.32; stroke-dashoffset: 0; stroke: #ffffff; stroke-opacity: 0.3; stroke-width: 0.8"/>
     </g>
     <g id="line2d_8">
      <g>
       <use xlink:href="#mde970b39fa" x="169.195935" y="176.633325" style="fill: #ffffff; stroke: #ffffff; stroke-width: 1.5"/>
      </g>
     </g>
     <g id="text_4">
      <!-- $\mathdefault{0.08}$ -->
      <g style="fill: #ffffff" transform="translate(161.004485 187.559975) scale(0.09 -0.09)">
       <defs>
        <path id="CMR17-38" d="M 1741 2264 
C 2144 2467 2554 2773 2554 3263 
C 2554 3841 1990 4179 1472 4179 
C 890 4179 378 3759 378 3180 
C 378 3021 416 2747 666 2505 
C 730 2442 998 2251 1171 2130 
C 883 1983 211 1634 211 934 
C 211 279 838 -128 1459 -128 
C 2144 -128 2720 362 2720 1010 
C 2720 1590 2330 1857 2074 2029 
L 1741 2264 
z
M 902 2822 
C 851 2854 595 3051 595 3351 
C 595 3739 998 4032 1459 4032 
C 1965 4032 2336 3676 2336 3262 
C 2336 2669 1670 2331 1638 2331 
C 1632 2331 1626 2331 1574 2370 
L 902 2822 
z
M 2080 1519 
C 2176 1449 2483 1240 2483 851 
C 2483 381 2010 25 1472 25 
C 890 25 448 438 448 940 
C 448 1443 838 1862 1280 2060 
L 2080 1519 
z
" transform="scale(0.015625)"/>
       </defs>
       <use xlink:href="#CMR17-30" transform="scale(0.996264)"/>
       <use xlink:href="#CMMI12-3a" transform="translate(45.690477 0) scale(0.996264)"/>
       <use xlink:href="#CMR17-30" transform="translate(72.787654 0) scale(0.996264)"/>
       <use xlink:href="#CMR17-38" transform="translate(118.478131 0) scale(0.996264)"/>
      </g>
     </g>
    </g>
    <g id="xtick_5">
     <g id="line2d_9">
      <path d="M 206.771692 176.633325 
L 206.771692 10.313325 
" clip-path="url(#pf276ab6144)" style="fill: none; stroke-dasharray: 0.8,1.32; stroke-dashoffset: 0; stroke: #ffffff; stroke-opacity: 0.3; stroke-width: 0.8"/>
     </g>
     <g id="line2d_10">
      <g>
       <use xlink:href="#mde970b39fa" x="206.771692" y="176.633325" style="fill: #ffffff; stroke: #ffffff; stroke-width: 1.5"/>
      </g>
     </g>
     <g id="text_5">
      <!-- $\mathdefault{0.10}$ -->
      <g style="fill: #ffffff" transform="translate(198.580242 187.559975) scale(0.09 -0.09)">
       <defs>
        <path id="CMR17-31" d="M 1702 4058 
C 1702 4192 1696 4192 1606 4192 
C 1357 3916 979 3827 621 3827 
C 602 3827 570 3827 563 3808 
C 557 3795 557 3782 557 3648 
C 755 3648 1088 3686 1344 3839 
L 1344 461 
C 1344 236 1331 160 781 160 
L 589 160 
L 589 0 
C 896 0 1216 0 1523 0 
C 1830 0 2150 0 2458 0 
L 2458 160 
L 2266 160 
C 1715 160 1702 230 1702 458 
L 1702 4058 
z
" transform="scale(0.015625)"/>
       </defs>
       <use xlink:href="#CMR17-30" transform="scale(0.996264)"/>
       <use xlink:href="#CMMI12-3a" transform="translate(45.690477 0) scale(0.996264)"/>
       <use xlink:href="#CMR17-31" transform="translate(72.787654 0) scale(0.996264)"/>
       <use xlink:href="#CMR17-30" transform="translate(118.478131 0) scale(0.996264)"/>
      </g>
     </g>
    </g>
    <g id="xtick_6">
     <g id="line2d_11">
      <path d="M 244.34745 176.633325 
L 244.34745 10.313325 
" clip-path="url(#pf276ab6144)" style="fill: none; stroke-dasharray: 0.8,1.32; stroke-dashoffset: 0; stroke: #ffffff; stroke-opacity: 0.3; stroke-width: 0.8"/>
     </g>
     <g id="line2d_12">
      <g>
       <use xlink:href="#mde970b39fa" x="244.34745" y="176.633325" style="fill: #ffffff; stroke: #ffffff; stroke-width: 1.5"/>
      </g>
     </g>
     <g id="text_6">
      <!-- $\mathdefault{0.12}$ -->
      <g style="fill: #ffffff" transform="translate(236.156 187.559975) scale(0.09 -0.09)">
       <use xlink:href="#CMR17-30" transform="scale(0.996264)"/>
       <use xlink:href="#CMMI12-3a" transform="translate(45.690477 0) scale(0.996264)"/>
       <use xlink:href="#CMR17-31" transform="translate(72.787654 0) scale(0.996264)"/>
       <use xlink:href="#CMR17-32" transform="translate(118.478131 0) scale(0.996264)"/>
      </g>
     </g>
    </g>
    <g id="xtick_7">
     <g id="line2d_13">
      <path d="M 281.923208 176.633325 
L 281.923208 10.313325 
" clip-path="url(#pf276ab6144)" style="fill: none; stroke-dasharray: 0.8,1.32; stroke-dashoffset: 0; stroke: #ffffff; stroke-opacity: 0.3; stroke-width: 0.8"/>
     </g>
     <g id="line2d_14">
      <g>
       <use xlink:href="#mde970b39fa" x="281.923208" y="176.633325" style="fill: #ffffff; stroke: #ffffff; stroke-width: 1.5"/>
      </g>
     </g>
     <g id="text_7">
      <!-- $\mathdefault{0.14}$ -->
      <g style="fill: #ffffff" transform="translate(273.731758 187.559975) scale(0.09 -0.09)">
       <use xlink:href="#CMR17-30" transform="scale(0.996264)"/>
       <use xlink:href="#CMMI12-3a" transform="translate(45.690477 0) scale(0.996264)"/>
       <use xlink:href="#CMR17-31" transform="translate(72.787654 0) scale(0.996264)"/>
       <use xlink:href="#CMR17-34" transform="translate(118.478131 0) scale(0.996264)"/>
      </g>
     </g>
    </g>
    <g id="text_8">
     <!-- $z_{\rm obs}$ -->
     <g style="fill: #ffffff" transform="translate(162.910194 201.681162) scale(0.15 -0.15)">
      <defs>
       <path id="CMMI12-7a" d="M 813 486 
C 1088 803 1312 1004 1632 1296 
C 2016 1632 2182 1793 2272 1891 
C 2720 2338 2944 2713 2944 2764 
C 2944 2816 2893 2816 2880 2816 
C 2835 2816 2822 2793 2790 2750 
C 2630 2494 2477 2367 2310 2367 
C 2176 2367 2106 2421 1984 2565 
C 1850 2715 1741 2816 1555 2816 
C 1088 2816 806 2257 806 2128 
C 806 2108 813 2068 870 2068 
C 922 2068 928 2091 947 2133 
C 1056 2372 1363 2414 1485 2414 
C 1619 2414 1747 2376 1882 2327 
C 2125 2240 2227 2240 2291 2240 
C 2336 2240 2362 2240 2394 2246 
C 2182 1994 1837 1683 1549 1418 
L 902 816 
C 512 415 275 33 275 -12 
C 275 -51 307 -64 346 -64 
C 384 -64 390 -57 435 14 
C 538 163 742 384 979 384 
C 1114 384 1178 342 1306 193 
C 1427 61 1536 -64 1741 -64 
C 2368 -64 2726 732 2726 876 
C 2726 903 2720 942 2656 942 
C 2605 942 2598 917 2579 855 
C 2438 488 2061 338 1811 338 
C 1677 338 1549 376 1414 425 
C 1158 512 1088 512 1005 512 
C 941 512 870 512 813 486 
z
" transform="scale(0.015625)"/>
       <path id="CMR17-6f" d="M 2758 1356 
C 2758 2176 2163 2816 1466 2816 
C 768 2816 173 2176 173 1356 
C 173 551 768 -64 1466 -64 
C 2163 -64 2758 551 2758 1356 
z
M 1466 51 
C 1165 51 909 230 762 480 
C 602 767 582 1126 582 1408 
C 582 1677 595 2010 762 2298 
C 890 2509 1139 2714 1466 2714 
C 1754 2714 1997 2554 2150 2330 
C 2349 2029 2349 1607 2349 1408 
C 2349 1158 2336 775 2163 467 
C 1984 173 1709 51 1466 51 
z
" transform="scale(0.015625)"/>
       <path id="CMR17-62" d="M 960 4396 
L 198 4326 
L 198 4160 
C 576 4160 634 4122 634 3817 
L 634 -13 
L 749 -13 
L 934 441 
C 1120 141 1395 -64 1766 -64 
C 2406 -64 3053 500 3053 1370 
C 3053 2188 2477 2790 1830 2790 
C 1434 2790 1152 2579 960 2330 
L 960 4396 
z
M 973 2004 
C 973 2118 973 2138 1062 2272 
C 1312 2657 1670 2688 1792 2688 
C 1984 2688 2643 2585 2643 1376 
C 2643 108 1888 38 1734 38 
C 1536 38 1248 114 1043 486 
C 973 608 973 621 973 735 
L 973 2004 
z
" transform="scale(0.015625)"/>
       <path id="CMR17-73" d="M 1978 2697 
C 1978 2813 1971 2819 1933 2819 
C 1907 2819 1901 2813 1824 2717 
C 1805 2691 1747 2626 1728 2601 
C 1523 2819 1235 2819 1126 2819 
C 416 2819 160 2447 160 2076 
C 160 1498 813 1365 998 1325 
C 1402 1243 1542 1217 1677 1101 
C 1760 1025 1901 884 1901 654 
C 1901 384 1747 38 1158 38 
C 602 38 403 460 288 1021 
C 269 1110 269 1117 218 1117 
C 166 1117 160 1110 160 983 
L 160 63 
C 160 -51 166 -58 205 -58 
C 237 -58 243 -51 275 0 
C 314 57 410 211 448 276 
C 576 103 800 -64 1158 -64 
C 1792 -64 2131 283 2131 784 
C 2131 1112 1958 1285 1875 1362 
C 1683 1561 1459 1606 1190 1657 
C 838 1735 390 1825 390 2217 
C 390 2383 480 2737 1126 2737 
C 1811 2737 1850 2094 1862 1888 
C 1869 1856 1901 1849 1920 1849 
C 1978 1849 1978 1869 1978 1978 
L 1978 2697 
z
" transform="scale(0.015625)"/>
      </defs>
      <use xlink:href="#CMMI12-7a" transform="scale(0.996264)"/>
      <use xlink:href="#CMR17-6f" transform="translate(45.315753 -14.943915) scale(0.697382)"/>
      <use xlink:href="#CMR17-62" transform="translate(77.298935 -14.943915) scale(0.697382)"/>
      <use xlink:href="#CMR17-73" transform="translate(112.925543 -14.943915) scale(0.697382)"/>
     </g>
    </g>
   </g>
   <g id="matplotlib.axis_2">
    <g id="ytick_1">
     <g id="line2d_15">
      <path d="M 47.074723 176.633325 
L 300.711086 176.633325 
" clip-path="url(#pf276ab6144)" style="fill: none; stroke-dasharray: 0.8,1.32; stroke-dashoffset: 0; stroke: #ffffff; stroke-opacity: 0.3; stroke-width: 0.8"/>
     </g>
     <g id="line2d_16">
      <defs>
       <path id="mea303198f4" d="M 0 0 
L -3.5 0 
" style="stroke: #ffffff; stroke-width: 1.5"/>
      </defs>
      <g>
       <use xlink:href="#mea303198f4" x="47.074723" y="176.633325" style="fill: #ffffff; stroke: #ffffff; stroke-width: 1.5"/>
      </g>
     </g>
     <g id="text_9">
      <!-- $\mathdefault{0}$ -->
      <g style="fill: #ffffff" transform="translate(37.967032 179.74665) scale(0.09 -0.09)">
       <use xlink:href="#CMR17-30" transform="scale(0.996264)"/>
      </g>
     </g>
    </g>
    <g id="ytick_2">
     <g id="line2d_17">
      <path d="M 47.074723 155.843325 
L 300.711086 155.843325 
" clip-path="url(#pf276ab6144)" style="fill: none; stroke-dasharray: 0.8,1.32; stroke-dashoffset: 0; stroke: #ffffff; stroke-opacity: 0.3; stroke-width: 0.8"/>
     </g>
     <g id="line2d_18">
      <g>
       <use xlink:href="#mea303198f4" x="47.074723" y="155.843325" style="fill: #ffffff; stroke: #ffffff; stroke-width: 1.5"/>
      </g>
     </g>
     <g id="text_10">
      <!-- $\mathdefault{500}$ -->
      <g style="fill: #ffffff" transform="translate(28.751651 158.95665) scale(0.09 -0.09)">
       <defs>
        <path id="CMR17-35" d="M 730 3692 
C 794 3666 1056 3584 1325 3584 
C 1920 3584 2246 3911 2432 4100 
C 2432 4157 2432 4192 2394 4192 
C 2387 4192 2374 4192 2323 4163 
C 2099 4058 1837 3973 1517 3973 
C 1325 3973 1037 3999 723 4139 
C 653 4171 640 4171 634 4171 
C 602 4171 595 4164 595 4037 
L 595 2203 
C 595 2089 595 2057 659 2057 
C 691 2057 704 2070 736 2114 
C 941 2401 1222 2522 1542 2522 
C 1766 2522 2246 2382 2246 1289 
C 2246 1085 2246 715 2054 421 
C 1894 159 1645 25 1370 25 
C 947 25 518 320 403 814 
C 429 807 480 795 506 795 
C 589 795 749 840 749 1038 
C 749 1210 627 1280 506 1280 
C 358 1280 262 1190 262 1011 
C 262 454 704 -128 1382 -128 
C 2042 -128 2669 440 2669 1264 
C 2669 2030 2170 2624 1549 2624 
C 1222 2624 947 2503 730 2274 
L 730 3692 
z
" transform="scale(0.015625)"/>
       </defs>
       <use xlink:href="#CMR17-35" transform="scale(0.996264)"/>
       <use xlink:href="#CMR17-30" transform="translate(45.690477 0) scale(0.996264)"/>
       <use xlink:href="#CMR17-30" transform="translate(91.380954 0) scale(0.996264)"/>
      </g>
     </g>
    </g>
    <g id="ytick_3">
     <g id="line2d_19">
      <path d="M 47.074723 135.053325 
L 300.711086 135.053325 
" clip-path="url(#pf276ab6144)" style="fill: none; stroke-dasharray: 0.8,1.32; stroke-dashoffset: 0; stroke: #ffffff; stroke-opacity: 0.3; stroke-width: 0.8"/>
     </g>
     <g id="line2d_20">
      <g>
       <use xlink:href="#mea303198f4" x="47.074723" y="135.053325" style="fill: #ffffff; stroke: #ffffff; stroke-width: 1.5"/>
      </g>
     </g>
     <g id="text_11">
      <!-- $\mathdefault{1000}$ -->
      <g style="fill: #ffffff" transform="translate(24.14396 138.16665) scale(0.09 -0.09)">
       <use xlink:href="#CMR17-31" transform="scale(0.996264)"/>
       <use xlink:href="#CMR17-30" transform="translate(45.690477 0) scale(0.996264)"/>
       <use xlink:href="#CMR17-30" transform="translate(91.380954 0) scale(0.996264)"/>
       <use xlink:href="#CMR17-30" transform="translate(137.071431 0) scale(0.996264)"/>
      </g>
     </g>
    </g>
    <g id="ytick_4">
     <g id="line2d_21">
      <path d="M 47.074723 114.263325 
L 300.711086 114.263325 
" clip-path="url(#pf276ab6144)" style="fill: none; stroke-dasharray: 0.8,1.32; stroke-dashoffset: 0; stroke: #ffffff; stroke-opacity: 0.3; stroke-width: 0.8"/>
     </g>
     <g id="line2d_22">
      <g>
       <use xlink:href="#mea303198f4" x="47.074723" y="114.263325" style="fill: #ffffff; stroke: #ffffff; stroke-width: 1.5"/>
      </g>
     </g>
     <g id="text_12">
      <!-- $\mathdefault{1500}$ -->
      <g style="fill: #ffffff" transform="translate(24.14396 117.37665) scale(0.09 -0.09)">
       <use xlink:href="#CMR17-31" transform="scale(0.996264)"/>
       <use xlink:href="#CMR17-35" transform="translate(45.690477 0) scale(0.996264)"/>
       <use xlink:href="#CMR17-30" transform="translate(91.380954 0) scale(0.996264)"/>
       <use xlink:href="#CMR17-30" transform="translate(137.071431 0) scale(0.996264)"/>
      </g>
     </g>
    </g>
    <g id="ytick_5">
     <g id="line2d_23">
      <path d="M 47.074723 93.473325 
L 300.711086 93.473325 
" clip-path="url(#pf276ab6144)" style="fill: none; stroke-dasharray: 0.8,1.32; stroke-dashoffset: 0; stroke: #ffffff; stroke-opacity: 0.3; stroke-width: 0.8"/>
     </g>
     <g id="line2d_24">
      <g>
       <use xlink:href="#mea303198f4" x="47.074723" y="93.473325" style="fill: #ffffff; stroke: #ffffff; stroke-width: 1.5"/>
      </g>
     </g>
     <g id="text_13">
      <!-- $\mathdefault{2000}$ -->
      <g style="fill: #ffffff" transform="translate(24.14396 96.58665) scale(0.09 -0.09)">
       <use xlink:href="#CMR17-32" transform="scale(0.996264)"/>
       <use xlink:href="#CMR17-30" transform="translate(45.690477 0) scale(0.996264)"/>
       <use xlink:href="#CMR17-30" transform="translate(91.380954 0) scale(0.996264)"/>
       <use xlink:href="#CMR17-30" transform="translate(137.071431 0) scale(0.996264)"/>
      </g>
     </g>
    </g>
    <g id="ytick_6">
     <g id="line2d_25">
      <path d="M 47.074723 72.683325 
L 300.711086 72.683325 
" clip-path="url(#pf276ab6144)" style="fill: none; stroke-dasharray: 0.8,1.32; stroke-dashoffset: 0; stroke: #ffffff; stroke-opacity: 0.3; stroke-width: 0.8"/>
     </g>
     <g id="line2d_26">
      <g>
       <use xlink:href="#mea303198f4" x="47.074723" y="72.683325" style="fill: #ffffff; stroke: #ffffff; stroke-width: 1.5"/>
      </g>
     </g>
     <g id="text_14">
      <!-- $\mathdefault{2500}$ -->
      <g style="fill: #ffffff" transform="translate(24.14396 75.79665) scale(0.09 -0.09)">
       <use xlink:href="#CMR17-32" transform="scale(0.996264)"/>
       <use xlink:href="#CMR17-35" transform="translate(45.690477 0) scale(0.996264)"/>
       <use xlink:href="#CMR17-30" transform="translate(91.380954 0) scale(0.996264)"/>
       <use xlink:href="#CMR17-30" transform="translate(137.071431 0) scale(0.996264)"/>
      </g>
     </g>
    </g>
    <g id="ytick_7">
     <g id="line2d_27">
      <path d="M 47.074723 51.893325 
L 300.711086 51.893325 
" clip-path="url(#pf276ab6144)" style="fill: none; stroke-dasharray: 0.8,1.32; stroke-dashoffset: 0; stroke: #ffffff; stroke-opacity: 0.3; stroke-width: 0.8"/>
     </g>
     <g id="line2d_28">
      <g>
       <use xlink:href="#mea303198f4" x="47.074723" y="51.893325" style="fill: #ffffff; stroke: #ffffff; stroke-width: 1.5"/>
      </g>
     </g>
     <g id="text_15">
      <!-- $\mathdefault{3000}$ -->
      <g style="fill: #ffffff" transform="translate(24.14396 55.00665) scale(0.09 -0.09)">
       <defs>
        <path id="CMR17-33" d="M 1414 2157 
C 1984 2157 2234 1662 2234 1090 
C 2234 320 1824 25 1453 25 
C 1114 25 563 194 390 693 
C 422 680 454 680 486 680 
C 640 680 755 782 755 948 
C 755 1133 614 1216 486 1216 
C 378 1216 211 1165 211 926 
C 211 335 787 -128 1466 -128 
C 2176 -128 2720 430 2720 1085 
C 2720 1707 2208 2157 1600 2227 
C 2086 2328 2554 2756 2554 3329 
C 2554 3820 2048 4179 1472 4179 
C 890 4179 378 3829 378 3329 
C 378 3110 544 3072 627 3072 
C 762 3072 877 3155 877 3321 
C 877 3486 762 3569 627 3569 
C 602 3569 570 3569 544 3557 
C 730 3959 1235 4032 1459 4032 
C 1683 4032 2106 3925 2106 3320 
C 2106 3143 2080 2828 1862 2550 
C 1670 2304 1453 2304 1242 2284 
C 1210 2284 1062 2269 1037 2269 
C 992 2263 966 2257 966 2208 
C 966 2163 973 2157 1101 2157 
L 1414 2157 
z
" transform="scale(0.015625)"/>
       </defs>
       <use xlink:href="#CMR17-33" transform="scale(0.996264)"/>
       <use xlink:href="#CMR17-30" transform="translate(45.690477 0) scale(0.996264)"/>
       <use xlink:href="#CMR17-30" transform="translate(91.380954 0) scale(0.996264)"/>
       <use xlink:href="#CMR17-30" transform="translate(137.071431 0) scale(0.996264)"/>
      </g>
     </g>
    </g>
    <g id="ytick_8">
     <g id="line2d_29">
      <path d="M 47.074723 31.103325 
L 300.711086 31.103325 
" clip-path="url(#pf276ab6144)" style="fill: none; stroke-dasharray: 0.8,1.32; stroke-dashoffset: 0; stroke: #ffffff; stroke-opacity: 0.3; stroke-width: 0.8"/>
     </g>
     <g id="line2d_30">
      <g>
       <use xlink:href="#mea303198f4" x="47.074723" y="31.103325" style="fill: #ffffff; stroke: #ffffff; stroke-width: 1.5"/>
      </g>
     </g>
     <g id="text_16">
      <!-- $\mathdefault{3500}$ -->
      <g style="fill: #ffffff" transform="translate(24.14396 34.21665) scale(0.09 -0.09)">
       <use xlink:href="#CMR17-33" transform="scale(0.996264)"/>
       <use xlink:href="#CMR17-35" transform="translate(45.690477 0) scale(0.996264)"/>
       <use xlink:href="#CMR17-30" transform="translate(91.380954 0) scale(0.996264)"/>
       <use xlink:href="#CMR17-30" transform="translate(137.071431 0) scale(0.996264)"/>
      </g>
     </g>
    </g>
    <g id="ytick_9">
     <g id="line2d_31">
      <path d="M 47.074723 10.313325 
L 300.711086 10.313325 
" clip-path="url(#pf276ab6144)" style="fill: none; stroke-dasharray: 0.8,1.32; stroke-dashoffset: 0; stroke: #ffffff; stroke-opacity: 0.3; stroke-width: 0.8"/>
     </g>
     <g id="line2d_32">
      <g>
       <use xlink:href="#mea303198f4" x="47.074723" y="10.313325" style="fill: #ffffff; stroke: #ffffff; stroke-width: 1.5"/>
      </g>
     </g>
     <g id="text_17">
      <!-- $\mathdefault{4000}$ -->
      <g style="fill: #ffffff" transform="translate(24.14396 13.42665) scale(0.09 -0.09)">
       <use xlink:href="#CMR17-34" transform="scale(0.996264)"/>
       <use xlink:href="#CMR17-30" transform="translate(45.690477 0) scale(0.996264)"/>
       <use xlink:href="#CMR17-30" transform="translate(91.380954 0) scale(0.996264)"/>
       <use xlink:href="#CMR17-30" transform="translate(137.071431 0) scale(0.996264)"/>
      </g>
     </g>
    </g>
    <g id="text_18">
     <!-- $\langle N_{\rm SN}\rangle$ -->
     <g style="fill: #ffffff" transform="translate(18.40797 112.221113) rotate(-90) scale(0.15 -0.15)">
      <defs>
       <path id="CMSY10-68" d="M 2099 4557 
C 2131 4627 2131 4640 2131 4672 
C 2131 4742 2074 4800 2003 4800 
C 1946 4800 1901 4768 1856 4653 
L 736 1715 
C 723 1677 704 1638 704 1600 
C 704 1581 704 1568 736 1491 
L 1856 -1446 
C 1882 -1517 1914 -1600 2003 -1600 
C 2074 -1600 2131 -1542 2131 -1472 
C 2131 -1453 2131 -1440 2099 -1370 
L 966 1600 
L 2099 4557 
z
" transform="scale(0.015625)"/>
       <path id="CMMI12-4e" d="M 4736 3698 
C 4806 3974 4909 4166 5395 4166 
C 5414 4166 5491 4166 5491 4279 
C 5491 4352 5434 4352 5408 4352 
C 5280 4352 4954 4352 4826 4352 
L 4518 4352 
C 4429 4352 4314 4352 4224 4352 
C 4186 4352 4109 4352 4109 4230 
C 4109 4166 4160 4166 4205 4166 
C 4589 4166 4614 4019 4614 3903 
C 4614 3846 4608 3826 4589 3737 
L 3866 850 
L 2496 4249 
C 2451 4352 2445 4352 2304 4352 
L 1523 4352 
C 1395 4352 1338 4352 1338 4230 
C 1338 4166 1382 4166 1504 4166 
C 1536 4166 1914 4166 1914 4115 
C 1914 4102 1901 4051 1894 4032 
L 1043 635 
C 966 320 813 186 390 186 
C 358 186 294 186 294 67 
C 294 0 358 0 378 0 
C 506 0 832 0 960 0 
L 1267 0 
C 1357 0 1466 0 1555 0 
C 1600 0 1670 0 1670 122 
C 1670 180 1606 186 1581 186 
C 1370 186 1165 224 1165 454 
C 1165 505 1178 562 1190 613 
L 2054 4032 
C 2093 3968 2093 3956 2118 3898 
L 3642 115 
C 3674 38 3686 0 3744 0 
C 3808 0 3814 19 3840 128 
L 4736 3698 
z
" transform="scale(0.015625)"/>
       <path id="CMR17-53" d="M 2803 4290 
C 2803 4404 2797 4411 2758 4411 
C 2720 4411 2707 4385 2682 4328 
L 2490 3907 
C 2246 4257 1875 4416 1472 4416 
C 819 4416 294 3901 294 3253 
C 294 3056 339 2776 557 2510 
C 794 2218 1018 2167 1530 2033 
C 1722 1982 2042 1899 2106 1874 
C 2470 1722 2662 1341 2662 985 
C 2662 527 2336 38 1779 38 
C 1094 38 454 419 410 1311 
C 403 1413 397 1419 352 1419 
C 301 1419 294 1413 294 1285 
L 294 -1 
C 294 -115 301 -122 339 -122 
C 384 -122 397 -90 486 108 
C 493 127 493 140 614 381 
C 934 -39 1472 -128 1779 -128 
C 2477 -128 2970 451 2970 1124 
C 2970 1454 2848 1708 2778 1823 
C 2509 2230 2221 2306 1914 2382 
C 1869 2402 1856 2402 1498 2490 
C 1152 2579 1005 2624 845 2796 
C 666 2992 602 3196 602 3399 
C 602 3812 934 4263 1478 4263 
C 2157 4263 2579 3786 2675 2993 
C 2694 2878 2701 2872 2746 2872 
C 2803 2872 2803 2891 2803 2999 
L 2803 4290 
z
" transform="scale(0.015625)"/>
       <path id="CMR17-4e" d="M 1312 4250 
C 1267 4320 1261 4320 1139 4320 
L 326 4320 
L 326 4160 
L 448 4160 
C 704 4160 819 4129 838 4122 
L 838 610 
C 838 451 838 153 326 153 
L 326 -13 
C 474 0 742 0 902 0 
C 1062 0 1331 0 1478 -13 
L 1478 153 
C 966 153 966 451 966 610 
L 966 4033 
C 1011 3995 1011 3982 1056 3919 
L 3430 76 
C 3475 0 3494 0 3526 0 
C 3590 0 3590 19 3590 139 
L 3590 3705 
C 3590 3863 3590 4160 4102 4160 
L 4102 4326 
C 3955 4320 3686 4320 3526 4320 
C 3366 4320 3098 4320 2950 4326 
L 2950 4160 
C 3462 4160 3462 3862 3462 3703 
L 3462 763 
L 1312 4250 
z
" transform="scale(0.015625)"/>
       <path id="CMSY10-69" d="M 1747 1491 
C 1779 1568 1779 1581 1779 1600 
C 1779 1619 1779 1632 1747 1709 
L 627 4653 
C 589 4762 550 4800 480 4800 
C 410 4800 352 4742 352 4672 
C 352 4653 352 4640 384 4570 
L 1517 1600 
L 384 -1357 
C 352 -1427 352 -1440 352 -1472 
C 352 -1542 410 -1600 480 -1600 
C 563 -1600 589 -1536 614 -1472 
L 1747 1491 
z
" transform="scale(0.015625)"/>
      </defs>
      <use xlink:href="#CMSY10-68" transform="scale(0.996264)"/>
      <use xlink:href="#CMMI12-4e" transform="translate(38.743734 0) scale(0.996264)"/>
      <use xlink:href="#CMR17-53" transform="translate(116.858853 -14.943915) scale(0.697382)"/>
      <use xlink:href="#CMR17-4e" transform="translate(152.485461 -14.943915) scale(0.697382)"/>
      <use xlink:href="#CMSY10-69" transform="translate(201.334078 0) scale(0.996264)"/>
     </g>
    </g>
   </g>
   <g id="line2d_33">
    <path d="M 23.589874 176.449984 
L 32.983814 175.360674 
L 42.377753 173.209238 
L 51.771692 170.024328 
L 61.165632 165.834047 
L 70.559571 160.665965 
L 79.953511 154.547126 
L 89.34745 147.50406 
L 98.741389 139.562788 
L 108.135329 130.748836 
L 117.529268 121.087241 
L 126.923208 110.602562 
L 136.317147 99.318885 
L 145.711086 87.259836 
L 155.105026 74.448585 
L 164.498965 60.907856 
L 173.892905 46.659933 
L 183.286844 31.726671 
L 192.680783 16.129499 
L 202.074723 -0.11057 
L 202.57022 -1 
" clip-path="url(#pf276ab6144)" style="fill: none; stroke: #4c72b0; stroke-width: 2; stroke-linecap: square"/>
   </g>
   <g id="patch_3">
    <path d="M 18.892905 176.633325 
L 18.892905 176.633325 
L 28.286844 176.633325 
L 28.286844 176.508585 
L 37.680783 176.508585 
L 37.680783 174.457305 
L 47.074723 174.457305 
L 47.074723 172.447605 
L 56.468662 172.447605 
L 56.468662 170.019025 
L 65.862602 170.019025 
L 65.862602 166.895905 
L 75.256541 166.895905 
L 75.256541 163.270745 
L 84.65048 163.270745 
L 84.65048 158.603005 
L 94.04442 158.603005 
L 94.04442 153.322345 
L 103.438359 153.322345 
L 103.438359 148.380485 
L 112.832298 148.380485 
L 112.832298 142.847265 
L 122.226238 142.847265 
L 122.226238 136.619505 
L 131.620177 136.619505 
L 131.620177 130.502625 
L 141.014117 130.502625 
L 141.014117 124.290265 
L 150.408056 124.290265 
L 150.408056 117.954705 
L 159.801995 117.954705 
L 159.801995 111.539065 
L 169.195935 111.539065 
L 169.195935 103.837525 
L 178.589874 103.837525 
L 178.589874 96.944485 
L 187.983814 96.944485 
L 187.983814 90.839925 
L 197.377753 90.839925 
L 197.377753 84.954045 
L 206.771692 84.954045 
L 206.771692 77.554345 
L 216.165632 77.554345 
L 216.165632 71.556045 
L 225.559571 71.556045 
L 225.559571 64.582925 
L 234.953511 64.582925 
L 234.953511 58.486065 
L 244.34745 58.486065 
L 244.34745 54.115545 
L 253.741389 54.115545 
L 253.741389 48.961165 
L 263.135329 48.961165 
L 263.135329 43.897645 
L 272.529268 43.897645 
L 272.529268 39.236065 
L 281.923208 39.236065 
L 281.923208 34.304985 
L 291.317147 34.304985 
L 291.317147 30.219365 
L 300.711086 30.219365 
L 300.711086 28.522285 
L 310.105026 28.522285 
L 310.105026 24.755445 
L 319.498965 24.755445 
L 319.498965 23.622005 
L 328.892905 23.622005 
L 328.892905 176.633325 
" clip-path="url(#pf276ab6144)" style="fill: none; stroke: #55a868; stroke-width: 2; stroke-linejoin: miter"/>
   </g>
   <g id="patch_4">
    <path d="M 18.892905 176.633325 
L 18.892905 176.633325 
L 28.286844 176.633325 
L 28.286844 176.571725 
L 37.680783 176.571725 
L 37.680783 175.398245 
L 47.074723 175.398245 
L 47.074723 174.232465 
L 56.468662 174.232465 
L 56.468662 172.871105 
L 65.862602 172.871105 
L 65.862602 171.174025 
L 75.256541 171.174025 
L 75.256541 169.444605 
L 84.65048 169.444605 
L 84.65048 166.898985 
L 94.04442 166.898985 
L 94.04442 164.578205 
L 103.438359 164.578205 
L 103.438359 162.345205 
L 112.832298 162.345205 
L 112.832298 160.517225 
L 122.226238 160.517225 
L 122.226238 158.841705 
L 131.620177 158.841705 
L 131.620177 158.153325 
L 141.014117 158.153325 
L 141.014117 159.123525 
L 150.408056 159.123525 
L 150.408056 160.899145 
L 159.801995 160.899145 
L 159.801995 163.732745 
L 169.195935 163.732745 
L 169.195935 166.788105 
L 178.589874 166.788105 
L 178.589874 169.948185 
L 187.983814 169.948185 
L 187.983814 172.703245 
L 197.377753 172.703245 
L 197.377753 174.492725 
L 206.771692 174.492725 
L 206.771692 175.586125 
L 216.165632 175.586125 
L 216.165632 176.195965 
L 225.559571 176.195965 
L 225.559571 176.434665 
L 234.953511 176.434665 
L 234.953511 176.547085 
L 244.34745 176.547085 
L 244.34745 176.596365 
L 253.741389 176.596365 
L 253.741389 176.608685 
L 263.135329 176.608685 
L 263.135329 176.624085 
L 272.529268 176.624085 
L 272.529268 176.621005 
L 281.923208 176.621005 
L 281.923208 176.627165 
L 291.317147 176.627165 
L 291.317147 176.628705 
L 300.711086 176.628705 
L 300.711086 176.633325 
L 310.105026 176.633325 
L 310.105026 176.631785 
L 319.498965 176.631785 
L 319.498965 176.633325 
L 328.892905 176.633325 
L 328.892905 176.633325 
" clip-path="url(#pf276ab6144)" style="fill: none; stroke: #c44e52; stroke-width: 2; stroke-linejoin: miter"/>
   </g>
   <g id="patch_5">
    <path d="M 47.074723 176.633325 
L 47.074723 10.313325 
" style="fill: none; stroke: #ffffff; stroke-width: 1.5; stroke-linejoin: miter; stroke-linecap: square"/>
   </g>
   <g id="patch_6">
    <path d="M 300.711086 176.633325 
L 300.711086 10.313325 
" style="fill: none; stroke: #ffffff; stroke-width: 1.5; stroke-linejoin: miter; stroke-linecap: square"/>
   </g>
   <g id="patch_7">
    <path d="M 47.074723 176.633325 
L 300.711086 176.633325 
" style="fill: none; stroke: #ffffff; stroke-width: 1.5; stroke-linejoin: miter; stroke-linecap: square"/>
   </g>
   <g id="patch_8">
    <path d="M 47.074723 10.313325 
L 300.711086 10.313325 
" style="fill: none; stroke: #ffffff; stroke-width: 1.5; stroke-linejoin: miter; stroke-linecap: square"/>
   </g>
   <g id="legend_1">
    <g id="patch_9">
     <path d="M 54.074723 61.150322 
L 186.614508 61.150322 
Q 188.614508 61.150322 188.614508 59.150322 
L 188.614508 17.313325 
Q 188.614508 15.313325 186.614508 15.313325 
L 54.074723 15.313325 
Q 52.074723 15.313325 52.074723 17.313325 
L 52.074723 59.150322 
Q 52.074723 61.150322 54.074723 61.150322 
z
" style="fill: #ffffff; opacity: 0.8; stroke: #cccccc; stroke-linejoin: miter"/>
    </g>
    <g id="line2d_34">
     <path d="M 56.074723 23.285305 
L 66.074723 23.285305 
L 76.074723 23.285305 
" style="fill: none; stroke: #4c72b0; stroke-width: 2; stroke-linecap: square"/>
    </g>
    <g id="text_19">
     <!-- Parent Sample (6 years) -->
     <g transform="translate(84.074723 26.785305) scale(0.1 -0.1)">
      <defs>
       <path id="CMSS17-50" d="M 2106 1856 
C 2874 1856 3501 2453 3501 3158 
C 3501 3850 2899 4453 2067 4453 
L 570 4453 
L 570 0 
L 1107 0 
L 1107 1856 
L 2106 1856 
z
M 1926 4096 
C 2669 4096 2995 3627 2995 3157 
C 2995 2720 2694 2226 1926 2226 
L 1094 2226 
L 1094 4096 
L 1926 4096 
z
" transform="scale(0.015625)"/>
       <path id="CMSS17-61" d="M 2406 1791 
C 2406 2392 1978 2808 1402 2808 
C 1120 2808 813 2757 461 2553 
L 499 2135 
C 659 2248 934 2432 1395 2432 
C 1722 2432 1920 2180 1920 1782 
L 1920 1536 
C 896 1536 256 1238 256 726 
C 256 461 416 -64 947 -64 
C 1043 -64 1562 -64 1933 217 
L 1933 -19 
L 2406 -19 
L 2406 1791 
z
M 1920 816 
C 1920 701 1920 548 1728 434 
C 1562 325 1350 325 1261 325 
C 941 325 723 511 723 744 
C 723 1211 1722 1211 1920 1211 
L 1920 816 
z
" transform="scale(0.015625)"/>
       <path id="CMSS17-72" d="M 954 1363 
C 954 1965 1395 2368 1958 2368 
L 1958 2789 
C 1549 2789 1165 2585 934 2253 
L 934 2758 
L 480 2758 
L 480 0 
L 954 0 
L 954 1363 
z
" transform="scale(0.015625)"/>
       <path id="CMSS17-65" d="M 2502 1377 
C 2502 1590 2490 2003 2285 2345 
C 2061 2713 1696 2816 1421 2816 
C 755 2816 192 2188 192 1375 
C 192 582 774 -64 1510 -64 
C 1798 -64 2150 19 2470 248 
C 2470 274 2458 414 2451 420 
C 2451 433 2432 630 2432 656 
C 2125 407 1773 325 1517 325 
C 1107 325 666 667 646 1377 
L 2502 1377 
z
M 698 1728 
C 781 2084 1062 2421 1421 2421 
C 1517 2421 1965 2421 2080 1728 
L 698 1728 
z
" transform="scale(0.015625)"/>
       <path id="CMSS17-6e" d="M 2618 1877 
C 2618 2283 2522 2816 1798 2816 
C 1389 2816 1120 2606 941 2389 
L 941 2758 
L 474 2758 
L 474 0 
L 960 0 
L 960 1559 
C 960 1964 1114 2428 1549 2428 
C 2112 2428 2131 2048 2131 1829 
L 2131 0 
L 2618 0 
L 2618 1877 
z
" transform="scale(0.015625)"/>
       <path id="CMSS17-74" d="M 1069 2368 
L 1901 2368 
L 1901 2737 
L 1069 2737 
L 1069 3520 
L 614 3520 
L 614 2737 
L 109 2737 
L 109 2368 
L 602 2368 
L 602 749 
C 602 384 685 -64 1107 -64 
C 1427 -64 1722 25 2003 172 
L 1901 548 
C 1747 414 1562 337 1363 337 
C 1082 337 1069 696 1069 856 
L 1069 2368 
z
" transform="scale(0.015625)"/>
       <path id="CMSS17-53" d="M 2797 4169 
C 2515 4334 2208 4480 1690 4480 
C 864 4480 333 3879 333 3266 
C 333 3025 403 2753 653 2475 
C 902 2196 1184 2121 1542 2033 
C 1690 1994 1939 1924 1984 1906 
C 2342 1767 2515 1444 2515 1140 
C 2515 742 2202 318 1645 318 
C 1453 318 890 318 358 819 
L 269 318 
C 794 -64 1363 -128 1651 -128 
C 2438 -128 3002 488 3002 1186 
C 3002 1440 2925 1763 2656 2061 
C 2394 2347 2163 2410 1638 2549 
C 1338 2626 1146 2677 986 2873 
C 877 3013 819 3146 819 3317 
C 819 3673 1126 4060 1690 4060 
C 1971 4060 2336 4002 2707 3660 
L 2797 4169 
z
" transform="scale(0.015625)"/>
       <path id="CMSS17-6d" d="M 4288 1877 
C 4288 2308 4179 2816 3462 2816 
C 2982 2816 2694 2516 2566 2331 
C 2451 2670 2182 2816 1798 2816 
C 1363 2816 1088 2568 941 2389 
L 941 2758 
L 474 2758 
L 474 0 
L 960 0 
L 960 1559 
C 960 1939 1101 2428 1555 2428 
C 2138 2428 2138 2016 2138 1829 
L 2138 0 
L 2624 0 
L 2624 1559 
C 2624 1939 2765 2428 3219 2428 
C 3802 2428 3802 2016 3802 1829 
L 3802 0 
L 4288 0 
L 4288 1877 
z
" transform="scale(0.015625)"/>
       <path id="CMSS17-70" d="M 966 333 
C 1178 129 1466 -5 1773 -5 
C 2368 -5 2880 603 2880 1412 
C 2880 2159 2496 2816 1946 2816 
C 1626 2816 1242 2702 954 2472 
L 954 2765 
L 480 2765 
L 480 -1216 
L 966 -1216 
L 966 333 
z
M 966 2100 
C 1018 2176 1235 2415 1587 2415 
C 2035 2415 2394 1960 2394 1412 
C 2394 787 1958 384 1530 384 
C 1402 384 1267 415 1139 523 
C 966 674 966 768 966 857 
L 966 2100 
z
" transform="scale(0.015625)"/>
       <path id="CMSS17-6c" d="M 947 4416 
L 474 4416 
L 474 0 
L 947 0 
L 947 4416 
z
" transform="scale(0.015625)"/>
       <path id="CMSS17-28" d="M 1613 4768 
C 1267 4417 474 3601 474 1588 
C 474 -433 1267 -1243 1613 -1600 
L 2003 -1600 
C 1216 -784 960 357 960 1581 
C 960 2798 1203 3946 2003 4768 
L 1613 4768 
z
" transform="scale(0.015625)"/>
       <path id="CMSS17-36" d="M 2496 4101 
C 2227 4210 2035 4229 1856 4229 
C 1024 4229 250 3368 250 2006 
C 250 265 986 -128 1510 -128 
C 1798 -128 2086 -39 2362 280 
C 2643 617 2752 898 2752 1389 
C 2752 2179 2362 2880 1779 2880 
C 1357 2880 992 2657 768 2376 
C 832 3258 1254 3840 1862 3840 
C 2029 3840 2246 3816 2496 3710 
L 2496 4101 
z
M 774 1369 
C 774 1420 774 1452 781 1548 
C 781 2045 1069 2491 1536 2491 
C 1837 2491 1990 2332 2106 2135 
C 2240 1886 2246 1650 2246 1388 
C 2246 1140 2246 891 2099 637 
C 1978 439 1818 267 1510 267 
C 902 267 800 1114 774 1369 
z
" transform="scale(0.015625)"/>
       <path id="CMSS17-79" d="M 2675 2752 
L 2176 2752 
C 1632 1294 1446 702 1434 383 
L 1427 383 
C 1408 696 1126 1460 902 2007 
L 602 2752 
L 83 2752 
L 1216 13 
C 1146 -178 1043 -465 1011 -529 
C 870 -885 774 -885 672 -885 
C 646 -885 442 -885 211 -809 
L 250 -1229 
C 410 -1261 570 -1280 685 -1280 
C 845 -1280 1165 -1280 1459 -497 
L 2675 2752 
z
" transform="scale(0.015625)"/>
       <path id="CMSS17-73" d="M 2061 2627 
C 1683 2807 1389 2807 1197 2807 
C 742 2807 198 2648 198 2003 
C 198 1359 902 1218 1094 1179 
C 1389 1122 1715 1058 1715 740 
C 1715 337 1254 337 1171 337 
C 915 337 563 407 243 638 
L 166 210 
C 531 0 883 -64 1178 -64 
C 1965 -64 2163 416 2163 781 
C 2163 1094 1984 1305 1862 1401 
C 1651 1568 1574 1587 1050 1696 
C 960 1709 646 1779 646 2066 
C 646 2432 1050 2432 1139 2432 
C 1555 2432 1811 2303 1984 2208 
L 2061 2627 
z
" transform="scale(0.015625)"/>
       <path id="CMSS17-29" d="M 723 -1600 
C 1069 -1249 1862 -433 1862 1581 
C 1862 3601 1069 4411 723 4768 
L 333 4768 
C 1120 3952 1376 2811 1376 1588 
C 1376 370 1133 -778 333 -1600 
L 723 -1600 
z
" transform="scale(0.015625)"/>
      </defs>
      <use xlink:href="#CMSS17-50" transform="scale(0.996264)"/>
      <use xlink:href="#CMSS17-61" transform="translate(57.133132 0) scale(0.996264)"/>
      <use xlink:href="#CMSS17-72" transform="translate(99.452599 0) scale(0.996264)"/>
      <use xlink:href="#CMSS17-65" transform="translate(131.362372 0) scale(0.996264)"/>
      <use xlink:href="#CMSS17-6e" transform="translate(173.001194 0) scale(0.996264)"/>
      <use xlink:href="#CMSS17-74" transform="translate(221.206137 0) scale(0.996264)"/>
      <use xlink:href="#CMSS17-53" transform="translate(286.266816 0) scale(0.996264)"/>
      <use xlink:href="#CMSS17-61" transform="translate(338.315332 0) scale(0.996264)"/>
      <use xlink:href="#CMSS17-6d" transform="translate(383.237253 0) scale(0.996264)"/>
      <use xlink:href="#CMSS17-70" transform="translate(457.466507 0) scale(0.996264)"/>
      <use xlink:href="#CMSS17-6c" transform="translate(505.671451 0) scale(0.996264)"/>
      <use xlink:href="#CMSS17-65" transform="translate(527.852174 0) scale(0.996264)"/>
      <use xlink:href="#CMSS17-28" transform="translate(600.720108 0) scale(0.996264)"/>
      <use xlink:href="#CMSS17-36" transform="translate(637.154023 0) scale(0.996264)"/>
      <use xlink:href="#CMSS17-79" transform="translate(715.226759 0) scale(0.996264)"/>
      <use xlink:href="#CMSS17-65" transform="translate(755.624447 0) scale(0.996264)"/>
      <use xlink:href="#CMSS17-61" transform="translate(797.263269 0) scale(0.996264)"/>
      <use xlink:href="#CMSS17-72" transform="translate(839.582735 0) scale(0.996264)"/>
      <use xlink:href="#CMSS17-73" transform="translate(871.492508 0) scale(0.996264)"/>
      <use xlink:href="#CMSS17-29" transform="translate(907.40605 0) scale(0.996264)"/>
     </g>
    </g>
    <g id="patch_10">
     <path d="M 56.074723 41.275965 
L 76.074723 41.275965 
L 76.074723 34.275965 
L 56.074723 34.275965 
L 56.074723 41.275965 
z
" style="fill: none; stroke: #55a868; stroke-width: 2; stroke-linejoin: miter"/>
    </g>
    <g id="text_20">
     <!-- + Photo-detection -->
     <g transform="translate(84.074723 41.275965) scale(0.1 -0.1)">
      <defs>
       <path id="CMSS17-2b" d="M 2451 1505 
L 4141 1505 
C 4230 1505 4339 1505 4339 1613 
C 4339 1728 4237 1728 4141 1728 
L 2451 1728 
L 2451 3413 
C 2451 3502 2451 3611 2342 3611 
C 2227 3611 2227 3509 2227 3413 
L 2227 1728 
L 531 1728 
C 442 1728 333 1728 333 1620 
C 333 1505 435 1505 531 1505 
L 2227 1505 
L 2227 -186 
C 2227 -275 2227 -384 2336 -384 
C 2451 -384 2451 -282 2451 -186 
L 2451 1505 
z
" transform="scale(0.015625)"/>
       <path id="CMSS17-68" d="M 2618 1891 
C 2618 2292 2522 2820 1798 2820 
C 1395 2820 1133 2623 947 2407 
L 947 4448 
L 474 4448 
L 474 32 
L 960 32 
L 960 1573 
C 960 1973 1114 2432 1549 2432 
C 2112 2432 2131 2056 2131 1839 
L 2131 32 
L 2618 32 
L 2618 1891 
z
" transform="scale(0.015625)"/>
       <path id="CMSS17-6f" d="M 2829 1356 
C 2829 2176 2221 2816 1504 2816 
C 768 2816 173 2157 173 1356 
C 173 544 787 -64 1498 -64 
C 2227 -64 2829 563 2829 1356 
z
M 1504 337 
C 1050 337 659 709 659 1408 
C 659 2151 1114 2427 1498 2427 
C 1914 2427 2342 2126 2342 1408 
C 2342 683 1926 337 1504 337 
z
" transform="scale(0.015625)"/>
       <path id="CMSS17-2d" d="M 1664 1216 
L 1664 1585 
L 64 1585 
L 64 1216 
L 1664 1216 
z
" transform="scale(0.015625)"/>
       <path id="CMSS17-64" d="M 2611 4416 
L 2138 4416 
L 2138 2438 
C 1939 2603 1613 2756 1254 2756 
C 672 2756 211 2131 211 1347 
C 211 562 666 -64 1235 -64 
C 1677 -64 1971 172 2125 306 
L 2125 -13 
L 2611 -13 
L 2611 4416 
z
M 2125 836 
C 2125 747 2125 653 1926 482 
C 1798 375 1645 325 1498 325 
C 1152 325 698 576 698 1340 
C 698 2134 1210 2368 1562 2368 
C 1798 2368 1990 2254 2125 2065 
L 2125 836 
z
" transform="scale(0.015625)"/>
       <path id="CMSS17-63" d="M 2464 2541 
C 2464 2585 2170 2714 2093 2739 
C 1882 2816 1613 2816 1542 2816 
C 710 2816 211 2093 211 1363 
C 211 595 768 -64 1517 -64 
C 1946 -64 2253 76 2502 242 
L 2464 664 
C 2189 453 1869 337 1523 337 
C 1024 337 698 774 698 1369 
C 698 1831 909 2414 1549 2414 
C 1901 2414 2099 2343 2394 2145 
L 2464 2541 
z
" transform="scale(0.015625)"/>
       <path id="CMSS17-69" d="M 979 4183 
L 442 4183 
L 442 3648 
L 979 3648 
L 979 4183 
z
M 947 2739 
L 474 2739 
L 474 0 
L 947 0 
L 947 2739 
z
" transform="scale(0.015625)"/>
      </defs>
      <use xlink:href="#CMSS17-2b" transform="scale(0.996264)"/>
      <use xlink:href="#CMSS17-50" transform="translate(104.097048 0) scale(0.996264)"/>
      <use xlink:href="#CMSS17-68" transform="translate(163.832634 0) scale(0.996264)"/>
      <use xlink:href="#CMSS17-6f" transform="translate(212.037577 0) scale(0.996264)"/>
      <use xlink:href="#CMSS17-74" transform="translate(258.881201 0) scale(0.996264)"/>
      <use xlink:href="#CMSS17-6f" transform="translate(292.712767 0) scale(0.996264)"/>
      <use xlink:href="#CMSS17-2d" transform="translate(339.556391 0) scale(0.996264)"/>
      <use xlink:href="#CMSS17-64" transform="translate(370.785503 0) scale(0.996264)"/>
      <use xlink:href="#CMSS17-65" transform="translate(418.990447 0) scale(0.996264)"/>
      <use xlink:href="#CMSS17-74" transform="translate(460.629269 0) scale(0.996264)"/>
      <use xlink:href="#CMSS17-65" transform="translate(494.460835 0) scale(0.996264)"/>
      <use xlink:href="#CMSS17-63" transform="translate(536.099657 0) scale(0.996264)"/>
      <use xlink:href="#CMSS17-74" transform="translate(577.738479 0) scale(0.996264)"/>
      <use xlink:href="#CMSS17-69" transform="translate(611.570046 0) scale(0.996264)"/>
      <use xlink:href="#CMSS17-6f" transform="translate(633.750769 0) scale(0.996264)"/>
      <use xlink:href="#CMSS17-6e" transform="translate(680.594393 0) scale(0.996264)"/>
     </g>
    </g>
    <g id="patch_11">
     <path d="M 56.074723 55.213143 
L 76.074723 55.213143 
L 76.074723 48.213143 
L 56.074723 48.213143 
L 56.074723 55.213143 
z
" style="fill: none; stroke: #c44e52; stroke-width: 2; stroke-linejoin: miter"/>
    </g>
    <g id="text_21">
     <!-- + Spectro-typing -->
     <g transform="translate(84.074723 55.213143) scale(0.1 -0.1)">
      <defs>
       <path id="CMSS17-67" d="M 2848 2808 
C 2483 2808 2170 2738 1914 2617 
C 1702 2777 1485 2808 1338 2808 
C 781 2808 358 2349 358 1814 
C 358 1468 550 1207 563 1195 
C 448 1035 384 863 384 672 
C 384 448 474 289 544 200 
C 211 -3 166 -314 166 -435 
C 166 -898 749 -1280 1498 -1280 
C 2253 -1280 2835 -898 2835 -428 
C 2835 448 1856 448 1587 448 
L 1069 448 
C 973 448 717 448 717 791 
C 717 921 774 1004 781 1010 
C 877 940 1075 832 1338 832 
C 1869 832 2310 1278 2310 1827 
C 2310 2132 2170 2355 2112 2432 
L 2131 2432 
C 2150 2432 2419 2432 2515 2432 
C 2720 2432 2739 2429 2918 2419 
L 2848 2808 
z
M 1338 1182 
C 1120 1182 813 1315 813 1823 
C 813 2375 1165 2464 1331 2464 
C 1549 2464 1856 2331 1856 1823 
C 1856 1271 1504 1182 1338 1182 
z
M 1581 -10 
C 1734 -10 2381 -10 2381 -442 
C 2381 -714 1984 -929 1504 -929 
C 1018 -929 621 -720 621 -435 
C 621 -403 621 -10 1062 -10 
L 1581 -10 
z
" transform="scale(0.015625)"/>
      </defs>
      <use xlink:href="#CMSS17-2b" transform="scale(0.996264)"/>
      <use xlink:href="#CMSS17-53" transform="translate(104.097048 0) scale(0.996264)"/>
      <use xlink:href="#CMSS17-70" transform="translate(156.145564 0) scale(0.996264)"/>
      <use xlink:href="#CMSS17-65" transform="translate(206.952946 0) scale(0.996264)"/>
      <use xlink:href="#CMSS17-63" transform="translate(248.591768 0) scale(0.996264)"/>
      <use xlink:href="#CMSS17-74" transform="translate(290.23059 0) scale(0.996264)"/>
      <use xlink:href="#CMSS17-72" transform="translate(324.062156 0) scale(0.996264)"/>
      <use xlink:href="#CMSS17-6f" transform="translate(355.971929 0) scale(0.996264)"/>
      <use xlink:href="#CMSS17-2d" transform="translate(402.815553 0) scale(0.996264)"/>
      <use xlink:href="#CMSS17-74" transform="translate(434.044665 0) scale(0.996264)"/>
      <use xlink:href="#CMSS17-79" transform="translate(465.273778 0) scale(0.996264)"/>
      <use xlink:href="#CMSS17-70" transform="translate(508.27392 0) scale(0.996264)"/>
      <use xlink:href="#CMSS17-69" transform="translate(556.478863 0) scale(0.996264)"/>
      <use xlink:href="#CMSS17-6e" transform="translate(578.659586 0) scale(0.996264)"/>
      <use xlink:href="#CMSS17-67" transform="translate(626.864529 0) scale(0.996264)"/>
     </g>
    </g>
   </g>
  </g>
  <g id="axes_2">
   <g id="patch_12">
    <path d="M 351.438359 176.633325 
L 605.074723 176.633325 
L 605.074723 10.313325 
L 351.438359 10.313325 
L 351.438359 176.633325 
z
" style="fill: none"/>
   </g>
   <g id="matplotlib.axis_3">
    <g id="xtick_8">
     <g id="line2d_35">
      <path d="M 360.832298 176.633325 
L 360.832298 10.313325 
" clip-path="url(#p98bd3c8442)" style="fill: none; stroke-dasharray: 0.8,1.32; stroke-dashoffset: 0; stroke: #ffffff; stroke-opacity: 0.3; stroke-width: 0.8"/>
     </g>
     <g id="line2d_36">
      <g>
       <use xlink:href="#mde970b39fa" x="360.832298" y="176.633325" style="fill: #ffffff; stroke: #ffffff; stroke-width: 1.5"/>
      </g>
     </g>
     <g id="text_22">
      <!-- $\mathdefault{0.02}$ -->
      <g style="fill: #ffffff" transform="translate(352.640848 187.559975) scale(0.09 -0.09)">
       <use xlink:href="#CMR17-30" transform="scale(0.996264)"/>
       <use xlink:href="#CMMI12-3a" transform="translate(45.690477 0) scale(0.996264)"/>
       <use xlink:href="#CMR17-30" transform="translate(72.787654 0) scale(0.996264)"/>
       <use xlink:href="#CMR17-32" transform="translate(118.478131 0) scale(0.996264)"/>
      </g>
     </g>
    </g>
    <g id="xtick_9">
     <g id="line2d_37">
      <path d="M 398.408056 176.633325 
L 398.408056 10.313325 
" clip-path="url(#p98bd3c8442)" style="fill: none; stroke-dasharray: 0.8,1.32; stroke-dashoffset: 0; stroke: #ffffff; stroke-opacity: 0.3; stroke-width: 0.8"/>
     </g>
     <g id="line2d_38">
      <g>
       <use xlink:href="#mde970b39fa" x="398.408056" y="176.633325" style="fill: #ffffff; stroke: #ffffff; stroke-width: 1.5"/>
      </g>
     </g>
     <g id="text_23">
      <!-- $\mathdefault{0.04}$ -->
      <g style="fill: #ffffff" transform="translate(390.216606 187.559975) scale(0.09 -0.09)">
       <use xlink:href="#CMR17-30" transform="scale(0.996264)"/>
       <use xlink:href="#CMMI12-3a" transform="translate(45.690477 0) scale(0.996264)"/>
       <use xlink:href="#CMR17-30" transform="translate(72.787654 0) scale(0.996264)"/>
       <use xlink:href="#CMR17-34" transform="translate(118.478131 0) scale(0.996264)"/>
      </g>
     </g>
    </g>
    <g id="xtick_10">
     <g id="line2d_39">
      <path d="M 435.983814 176.633325 
L 435.983814 10.313325 
" clip-path="url(#p98bd3c8442)" style="fill: none; stroke-dasharray: 0.8,1.32; stroke-dashoffset: 0; stroke: #ffffff; stroke-opacity: 0.3; stroke-width: 0.8"/>
     </g>
     <g id="line2d_40">
      <g>
       <use xlink:href="#mde970b39fa" x="435.983814" y="176.633325" style="fill: #ffffff; stroke: #ffffff; stroke-width: 1.5"/>
      </g>
     </g>
     <g id="text_24">
      <!-- $\mathdefault{0.06}$ -->
      <g style="fill: #ffffff" transform="translate(427.792364 187.559975) scale(0.09 -0.09)">
       <use xlink:href="#CMR17-30" transform="scale(0.996264)"/>
       <use xlink:href="#CMMI12-3a" transform="translate(45.690477 0) scale(0.996264)"/>
       <use xlink:href="#CMR17-30" transform="translate(72.787654 0) scale(0.996264)"/>
       <use xlink:href="#CMR17-36" transform="translate(118.478131 0) scale(0.996264)"/>
      </g>
     </g>
    </g>
    <g id="xtick_11">
     <g id="line2d_41">
      <path d="M 473.559571 176.633325 
L 473.559571 10.313325 
" clip-path="url(#p98bd3c8442)" style="fill: none; stroke-dasharray: 0.8,1.32; stroke-dashoffset: 0; stroke: #ffffff; stroke-opacity: 0.3; stroke-width: 0.8"/>
     </g>
     <g id="line2d_42">
      <g>
       <use xlink:href="#mde970b39fa" x="473.559571" y="176.633325" style="fill: #ffffff; stroke: #ffffff; stroke-width: 1.5"/>
      </g>
     </g>
     <g id="text_25">
      <!-- $\mathdefault{0.08}$ -->
      <g style="fill: #ffffff" transform="translate(465.368121 187.559975) scale(0.09 -0.09)">
       <use xlink:href="#CMR17-30" transform="scale(0.996264)"/>
       <use xlink:href="#CMMI12-3a" transform="translate(45.690477 0) scale(0.996264)"/>
       <use xlink:href="#CMR17-30" transform="translate(72.787654 0) scale(0.996264)"/>
       <use xlink:href="#CMR17-38" transform="translate(118.478131 0) scale(0.996264)"/>
      </g>
     </g>
    </g>
    <g id="xtick_12">
     <g id="line2d_43">
      <path d="M 511.135329 176.633325 
L 511.135329 10.313325 
" clip-path="url(#p98bd3c8442)" style="fill: none; stroke-dasharray: 0.8,1.32; stroke-dashoffset: 0; stroke: #ffffff; stroke-opacity: 0.3; stroke-width: 0.8"/>
     </g>
     <g id="line2d_44">
      <g>
       <use xlink:href="#mde970b39fa" x="511.135329" y="176.633325" style="fill: #ffffff; stroke: #ffffff; stroke-width: 1.5"/>
      </g>
     </g>
     <g id="text_26">
      <!-- $\mathdefault{0.10}$ -->
      <g style="fill: #ffffff" transform="translate(502.943879 187.559975) scale(0.09 -0.09)">
       <use xlink:href="#CMR17-30" transform="scale(0.996264)"/>
       <use xlink:href="#CMMI12-3a" transform="translate(45.690477 0) scale(0.996264)"/>
       <use xlink:href="#CMR17-31" transform="translate(72.787654 0) scale(0.996264)"/>
       <use xlink:href="#CMR17-30" transform="translate(118.478131 0) scale(0.996264)"/>
      </g>
     </g>
    </g>
    <g id="xtick_13">
     <g id="line2d_45">
      <path d="M 548.711086 176.633325 
L 548.711086 10.313325 
" clip-path="url(#p98bd3c8442)" style="fill: none; stroke-dasharray: 0.8,1.32; stroke-dashoffset: 0; stroke: #ffffff; stroke-opacity: 0.3; stroke-width: 0.8"/>
     </g>
     <g id="line2d_46">
      <g>
       <use xlink:href="#mde970b39fa" x="548.711086" y="176.633325" style="fill: #ffffff; stroke: #ffffff; stroke-width: 1.5"/>
      </g>
     </g>
     <g id="text_27">
      <!-- $\mathdefault{0.12}$ -->
      <g style="fill: #ffffff" transform="translate(540.519636 187.559975) scale(0.09 -0.09)">
       <use xlink:href="#CMR17-30" transform="scale(0.996264)"/>
       <use xlink:href="#CMMI12-3a" transform="translate(45.690477 0) scale(0.996264)"/>
       <use xlink:href="#CMR17-31" transform="translate(72.787654 0) scale(0.996264)"/>
       <use xlink:href="#CMR17-32" transform="translate(118.478131 0) scale(0.996264)"/>
      </g>
     </g>
    </g>
    <g id="xtick_14">
     <g id="line2d_47">
      <path d="M 586.286844 176.633325 
L 586.286844 10.313325 
" clip-path="url(#p98bd3c8442)" style="fill: none; stroke-dasharray: 0.8,1.32; stroke-dashoffset: 0; stroke: #ffffff; stroke-opacity: 0.3; stroke-width: 0.8"/>
     </g>
     <g id="line2d_48">
      <g>
       <use xlink:href="#mde970b39fa" x="586.286844" y="176.633325" style="fill: #ffffff; stroke: #ffffff; stroke-width: 1.5"/>
      </g>
     </g>
     <g id="text_28">
      <!-- $\mathdefault{0.14}$ -->
      <g style="fill: #ffffff" transform="translate(578.095394 187.559975) scale(0.09 -0.09)">
       <use xlink:href="#CMR17-30" transform="scale(0.996264)"/>
       <use xlink:href="#CMMI12-3a" transform="translate(45.690477 0) scale(0.996264)"/>
       <use xlink:href="#CMR17-31" transform="translate(72.787654 0) scale(0.996264)"/>
       <use xlink:href="#CMR17-34" transform="translate(118.478131 0) scale(0.996264)"/>
      </g>
     </g>
    </g>
    <g id="text_29">
     <!-- $z_{\rm obs}$ -->
     <g style="fill: #ffffff" transform="translate(467.273831 201.681162) scale(0.15 -0.15)">
      <use xlink:href="#CMMI12-7a" transform="scale(0.996264)"/>
      <use xlink:href="#CMR17-6f" transform="translate(45.315753 -14.943915) scale(0.697382)"/>
      <use xlink:href="#CMR17-62" transform="translate(77.298935 -14.943915) scale(0.697382)"/>
      <use xlink:href="#CMR17-73" transform="translate(112.925543 -14.943915) scale(0.697382)"/>
     </g>
    </g>
   </g>
   <g id="matplotlib.axis_4">
    <g id="ytick_10">
     <g id="line2d_49">
      <path d="M 351.438359 169.073325 
L 605.074723 169.073325 
" clip-path="url(#p98bd3c8442)" style="fill: none; stroke-dasharray: 0.8,1.32; stroke-dashoffset: 0; stroke: #ffffff; stroke-opacity: 0.3; stroke-width: 0.8"/>
     </g>
     <g id="line2d_50">
      <g>
       <use xlink:href="#mea303198f4" x="351.438359" y="169.073325" style="fill: #ffffff; stroke: #ffffff; stroke-width: 1.5"/>
      </g>
     </g>
     <g id="text_30">
      <!-- $\mathdefault{0}$ -->
      <g style="fill: #ffffff" transform="translate(342.330668 172.18665) scale(0.09 -0.09)">
       <use xlink:href="#CMR17-30" transform="scale(0.996264)"/>
      </g>
     </g>
    </g>
    <g id="ytick_11">
     <g id="line2d_51">
      <path d="M 351.438359 132.200095 
L 605.074723 132.200095 
" clip-path="url(#p98bd3c8442)" style="fill: none; stroke-dasharray: 0.8,1.32; stroke-dashoffset: 0; stroke: #ffffff; stroke-opacity: 0.3; stroke-width: 0.8"/>
     </g>
     <g id="line2d_52">
      <g>
       <use xlink:href="#mea303198f4" x="351.438359" y="132.200095" style="fill: #ffffff; stroke: #ffffff; stroke-width: 1.5"/>
      </g>
     </g>
     <g id="text_31">
      <!-- $\mathdefault{1}$ -->
      <g style="fill: #ffffff" transform="translate(342.330668 135.31342) scale(0.09 -0.09)">
       <use xlink:href="#CMR17-31" transform="scale(0.996264)"/>
      </g>
     </g>
    </g>
    <g id="ytick_12">
     <g id="line2d_53">
      <path d="M 351.438359 95.326865 
L 605.074723 95.326865 
" clip-path="url(#p98bd3c8442)" style="fill: none; stroke-dasharray: 0.8,1.32; stroke-dashoffset: 0; stroke: #ffffff; stroke-opacity: 0.3; stroke-width: 0.8"/>
     </g>
     <g id="line2d_54">
      <g>
       <use xlink:href="#mea303198f4" x="351.438359" y="95.326865" style="fill: #ffffff; stroke: #ffffff; stroke-width: 1.5"/>
      </g>
     </g>
     <g id="text_32">
      <!-- $\mathdefault{2}$ -->
      <g style="fill: #ffffff" transform="translate(342.330668 98.44019) scale(0.09 -0.09)">
       <use xlink:href="#CMR17-32" transform="scale(0.996264)"/>
      </g>
     </g>
    </g>
    <g id="ytick_13">
     <g id="line2d_55">
      <path d="M 351.438359 58.453636 
L 605.074723 58.453636 
" clip-path="url(#p98bd3c8442)" style="fill: none; stroke-dasharray: 0.8,1.32; stroke-dashoffset: 0; stroke: #ffffff; stroke-opacity: 0.3; stroke-width: 0.8"/>
     </g>
     <g id="line2d_56">
      <g>
       <use xlink:href="#mea303198f4" x="351.438359" y="58.453636" style="fill: #ffffff; stroke: #ffffff; stroke-width: 1.5"/>
      </g>
     </g>
     <g id="text_33">
      <!-- $\mathdefault{3}$ -->
      <g style="fill: #ffffff" transform="translate(342.330668 61.566961) scale(0.09 -0.09)">
       <use xlink:href="#CMR17-33" transform="scale(0.996264)"/>
      </g>
     </g>
    </g>
    <g id="ytick_14">
     <g id="line2d_57">
      <path d="M 351.438359 21.580406 
L 605.074723 21.580406 
" clip-path="url(#p98bd3c8442)" style="fill: none; stroke-dasharray: 0.8,1.32; stroke-dashoffset: 0; stroke: #ffffff; stroke-opacity: 0.3; stroke-width: 0.8"/>
     </g>
     <g id="line2d_58">
      <g>
       <use xlink:href="#mea303198f4" x="351.438359" y="21.580406" style="fill: #ffffff; stroke: #ffffff; stroke-width: 1.5"/>
      </g>
     </g>
     <g id="text_34">
      <!-- $\mathdefault{4}$ -->
      <g style="fill: #ffffff" transform="translate(342.330668 24.693731) scale(0.09 -0.09)">
       <use xlink:href="#CMR17-34" transform="scale(0.996264)"/>
      </g>
     </g>
    </g>
    <g id="text_35">
     <!-- $n(z)$ [$10^{-4} \ h^3$Mpc$^{-3}$] -->
     <g style="fill: #ffffff" transform="translate(336.594678 158.181521) rotate(-90) scale(0.15 -0.15)">
      <defs>
       <path id="CMMI12-6e" d="M 1318 1871 
C 1331 1910 1491 2229 1728 2433 
C 1894 2586 2112 2689 2362 2689 
C 2618 2689 2707 2497 2707 2242 
C 2707 1878 2445 1150 2317 805 
C 2259 651 2227 568 2227 453 
C 2227 166 2426 -64 2733 -64 
C 3328 -64 3552 875 3552 913 
C 3552 945 3526 971 3488 971 
C 3430 971 3424 952 3392 843 
C 3245 319 3002 64 2752 64 
C 2688 64 2586 64 2586 269 
C 2586 429 2656 621 2694 710 
C 2822 1063 3091 1780 3091 2145 
C 3091 2528 2867 2816 2381 2816 
C 1811 2816 1510 2415 1395 2255 
C 1376 2618 1114 2816 832 2816 
C 627 2816 486 2695 378 2478 
C 262 2248 173 1865 173 1839 
C 173 1814 198 1782 243 1782 
C 294 1782 301 1788 339 1935 
C 442 2325 557 2689 813 2689 
C 960 2689 1011 2586 1011 2395 
C 1011 2254 947 2005 902 1807 
L 723 1118 
C 698 996 627 709 595 594 
C 550 428 480 128 480 96 
C 480 6 550 -64 646 -64 
C 723 -64 813 -26 864 70 
C 877 102 934 326 966 453 
L 1107 1028 
L 1318 1871 
z
" transform="scale(0.015625)"/>
       <path id="CMR17-28" d="M 1958 -1561 
C 1958 -1555 1958 -1542 1939 -1523 
C 1645 -1224 858 -407 858 1581 
C 858 3569 1632 4379 1946 4697 
C 1946 4704 1958 4717 1958 4736 
C 1958 4755 1939 4768 1914 4768 
C 1843 4768 1299 4296 986 3594 
C 666 2887 576 2199 576 1588 
C 576 1128 621 351 1005 -471 
C 1312 -1135 1837 -1600 1914 -1600 
C 1946 -1600 1958 -1587 1958 -1561 
z
" transform="scale(0.015625)"/>
       <path id="CMR17-29" d="M 1683 1581 
C 1683 2040 1638 2817 1254 3639 
C 947 4303 422 4768 346 4768 
C 326 4768 301 4761 301 4729 
C 301 4717 307 4710 314 4697 
C 621 4378 1402 3568 1402 1584 
C 1402 -407 627 -1217 314 -1537 
C 307 -1549 301 -1556 301 -1568 
C 301 -1600 326 -1600 346 -1600 
C 416 -1600 960 -1128 1274 -426 
C 1594 281 1683 969 1683 1581 
z
" transform="scale(0.015625)"/>
       <path id="CMSS17-5b" d="M 1613 -1600 
L 1613 -1212 
L 1062 -1212 
L 1062 4352 
L 1613 4352 
L 1613 4741 
L 595 4741 
L 595 -1600 
L 1613 -1600 
z
" transform="scale(0.015625)"/>
       <path id="CMSY10-0" d="M 4218 1472 
C 4326 1472 4442 1472 4442 1600 
C 4442 1728 4326 1728 4218 1728 
L 755 1728 
C 646 1728 531 1728 531 1600 
C 531 1472 646 1472 755 1472 
L 4218 1472 
z
" transform="scale(0.015625)"/>
       <path id="CMMI12-68" d="M 1798 4257 
C 1805 4283 1818 4321 1818 4352 
C 1818 4416 1754 4416 1741 4416 
C 1734 4416 1421 4388 1389 4380 
C 1280 4373 1184 4358 1069 4358 
C 909 4345 864 4339 864 4224 
C 864 4160 915 4160 1005 4160 
C 1318 4160 1325 4103 1325 4040 
C 1325 4002 1312 3951 1306 3932 
L 378 248 
C 352 152 352 140 352 101 
C 352 -38 461 -64 525 -64 
C 634 -64 717 19 749 89 
L 1037 1245 
C 1069 1386 1107 1520 1139 1660 
C 1210 1929 1210 1935 1331 2120 
C 1453 2305 1741 2689 2234 2689 
C 2490 2689 2579 2497 2579 2242 
C 2579 1884 2330 1188 2189 805 
C 2131 651 2099 568 2099 453 
C 2099 166 2298 -64 2605 -64 
C 3200 -64 3424 875 3424 913 
C 3424 945 3398 971 3360 971 
C 3302 971 3296 952 3264 843 
C 3117 332 2880 64 2624 64 
C 2560 64 2458 64 2458 269 
C 2458 436 2534 640 2560 710 
C 2675 1018 2963 1773 2963 2145 
C 2963 2528 2739 2816 2253 2816 
C 1888 2816 1568 2644 1306 2312 
L 1798 4257 
z
" transform="scale(0.015625)"/>
       <path id="CMSS17-4d" d="M 3194 2371 
L 2886 1473 
C 2835 1307 2662 791 2624 587 
L 2618 587 
C 2598 715 2560 849 2458 1174 
C 2400 1365 2336 1562 2272 1741 
L 1325 4416 
L 576 4416 
L 576 0 
L 1075 0 
L 1075 3900 
L 1082 3900 
C 1082 3894 1139 3613 1530 2499 
L 2374 96 
L 2848 96 
L 3610 2231 
C 3661 2378 3821 2843 3891 3066 
C 3955 3257 4115 3728 4154 3913 
L 4160 3913 
L 4160 0 
L 4666 0 
L 4666 4416 
L 3923 4416 
L 3194 2371 
z
" transform="scale(0.015625)"/>
       <path id="CMSS17-5d" d="M 1146 4741 
L 128 4741 
L 128 4352 
L 678 4352 
L 678 -1212 
L 128 -1212 
L 128 -1600 
L 1146 -1600 
L 1146 4741 
z
" transform="scale(0.015625)"/>
      </defs>
      <use xlink:href="#CMMI12-6e" transform="scale(0.996264)"/>
      <use xlink:href="#CMR17-28" transform="translate(58.230047 0) scale(0.996264)"/>
      <use xlink:href="#CMMI12-7a" transform="translate(93.510815 0) scale(0.996264)"/>
      <use xlink:href="#CMR17-29" transform="translate(143.26596 0) scale(0.996264)"/>
      <use xlink:href="#CMSS17-5b" transform="translate(209.775841 0) scale(0.996264)"/>
      <use xlink:href="#CMR17-31" transform="translate(236.961279 0) scale(0.996264)"/>
      <use xlink:href="#CMR17-30" transform="translate(282.651756 0) scale(0.996264)"/>
      <use xlink:href="#CMSY10-0" transform="translate(328.342233 36.153639) scale(0.697382)"/>
      <use xlink:href="#CMR17-34" transform="translate(382.583227 36.153639) scale(0.697382)"/>
      <use xlink:href="#CMMI12-68" transform="translate(446.293653 0) scale(0.996264)"/>
      <use xlink:href="#CMR17-33" transform="translate(502.448277 36.153639) scale(0.697382)"/>
      <use xlink:href="#CMSS17-4d" transform="translate(534.929591 0) scale(0.996264)"/>
      <use xlink:href="#CMSS17-70" transform="translate(616.605621 0) scale(0.996264)"/>
      <use xlink:href="#CMSS17-63" transform="translate(667.413003 0) scale(0.996264)"/>
      <use xlink:href="#CMSY10-0" transform="translate(709.051825 36.153639) scale(0.697382)"/>
      <use xlink:href="#CMR17-33" transform="translate(763.292819 36.153639) scale(0.697382)"/>
      <use xlink:href="#CMSS17-5d" transform="translate(795.774133 0) scale(0.996264)"/>
     </g>
    </g>
   </g>
   <g id="line2d_59">
    <path d="M 327.953511 17.873325 
L 337.34745 18.623697 
L 346.741389 19.366658 
L 356.135329 20.102318 
L 365.529268 20.830782 
L 374.923208 21.552157 
L 384.317147 22.266545 
L 393.711086 22.974048 
L 403.105026 23.674764 
L 412.498965 24.36879 
L 421.892905 25.056223 
L 431.286844 25.737155 
L 440.680783 26.411678 
L 450.074723 27.079882 
L 459.468662 27.741856 
L 468.862602 28.397687 
L 478.256541 29.047459 
L 487.65048 29.691256 
L 497.04442 30.32916 
L 506.438359 30.961252 
L 515.832298 31.587611 
L 525.226238 32.208314 
L 534.620177 32.823437 
L 544.014117 33.433057 
L 553.408056 34.037245 
L 562.801995 34.636074 
L 572.195935 35.229616 
L 581.589874 35.81794 
L 590.983814 36.401115 
L 600.377753 36.979207 
L 609.771692 37.552284 
L 613.274723 37.76414 
" clip-path="url(#p98bd3c8442)" style="fill: none; stroke: #4c72b0; stroke-width: 2; stroke-linecap: square"/>
   </g>
   <g id="line2d_60">
    <path d="M 327.953511 169.073325 
L 337.34745 153.907119 
L 346.741389 71.226039 
L 356.135329 72.038888 
L 365.529268 75.693822 
L 374.923208 76.549267 
L 384.317147 77.724071 
L 393.711086 76.067206 
L 403.105026 75.040105 
L 412.498965 77.436951 
L 421.892905 78.981016 
L 431.286844 79.740917 
L 440.680783 81.52936 
L 450.074723 83.545341 
L 459.468662 85.60489 
L 468.862602 87.692482 
L 478.256541 88.414909 
L 487.65048 90.240765 
L 497.04442 92.799985 
L 506.438359 95.393605 
L 515.832298 96.711542 
L 525.226238 98.998369 
L 534.620177 100.543292 
L 544.014117 102.541662 
L 553.408056 105.317244 
L 562.801995 107.471854 
L 572.195935 109.507368 
L 581.589874 111.562681 
L 590.983814 113.357707 
L 600.377753 115.338004 
L 609.771692 117.992065 
L 613.274723 118.645331 
" clip-path="url(#p98bd3c8442)" style="fill: none; stroke: #55a868; stroke-width: 1.5; stroke-linecap: square"/>
   </g>
   <g id="line2d_61">
    <path d="M 327.953511 169.073325 
L 337.34745 161.130802 
L 346.741389 110.177087 
L 356.135329 110.04926 
L 365.529268 112.746092 
L 374.923208 114.061723 
L 384.317147 116.957116 
L 393.711086 115.823135 
L 403.105026 117.503118 
L 412.498965 119.927409 
L 421.892905 123.499374 
L 431.286844 126.950152 
L 440.680783 131.881739 
L 450.074723 138.731837 
L 459.468662 145.338117 
L 468.862602 151.96942 
L 478.256541 157.50487 
L 487.65048 162.05998 
L 497.04442 165.367996 
L 506.438359 167.24893 
L 515.832298 168.262245 
L 525.226238 168.764011 
L 534.620177 168.944475 
L 544.014117 169.021824 
L 553.408056 169.052928 
L 562.801995 169.060717 
L 572.195935 169.068928 
L 581.589874 169.067856 
L 590.983814 169.070768 
L 600.377753 169.071527 
L 609.771692 169.073325 
L 613.274723 169.073127 
" clip-path="url(#p98bd3c8442)" style="fill: none; stroke: #c44e52; stroke-width: 1.5; stroke-linecap: square"/>
   </g>
   <g id="patch_13">
    <path d="M 351.438359 176.633325 
L 351.438359 10.313325 
" style="fill: none; stroke: #ffffff; stroke-width: 1.5; stroke-linejoin: miter; stroke-linecap: square"/>
   </g>
   <g id="patch_14">
    <path d="M 605.074723 176.633325 
L 605.074723 10.313325 
" style="fill: none; stroke: #ffffff; stroke-width: 1.5; stroke-linejoin: miter; stroke-linecap: square"/>
   </g>
   <g id="patch_15">
    <path d="M 351.438359 176.633325 
L 605.074723 176.633325 
" style="fill: none; stroke: #ffffff; stroke-width: 1.5; stroke-linejoin: miter; stroke-linecap: square"/>
   </g>
   <g id="patch_16">
    <path d="M 351.438359 10.313325 
L 605.074723 10.313325 
" style="fill: none; stroke: #ffffff; stroke-width: 1.5; stroke-linejoin: miter; stroke-linecap: square"/>
   </g>
  </g>
 </g>
 <defs>
  <clipPath id="pf276ab6144">
   <rect x="47.074723" y="10.313325" width="253.636364" height="166.32"/>
  </clipPath>
  <clipPath id="p98bd3c8442">
   <rect x="351.438359" y="10.313325" width="253.636364" height="166.32"/>
  </clipPath>
 </defs>
</svg>
